<?xml version="1.0" encoding="UTF-8" standalone="no"?>
<!DOCTYPE svg PUBLIC "-//W3C//DTD SVG 1.1//EN" "http://www.w3.org/Graphics/SVG/1.1/DTD/svg11.dtd">
<svg version="1.1" xmlns="http://www.w3.org/2000/svg" xmlns:xlink="http://www.w3.org/1999/xlink" preserveAspectRatio="xMidYMid meet" viewBox="0 0 276 325" width="276" height="325"><defs><path d="M-612.11 918.08L-612.11 1109.85L-811.04 1109.85L-811.04 918.08L-612.11 918.08Z" id="g5or3PKnLg"></path><path d="M-575.59 916.13L-711.58 916.13L-847.57 916.13L-779.57 853.19L-711.58 790.25L-643.57 853.19L-575.59 916.13Z" id="eRRvFhlrC"></path><path d="M238.94 127.83L238.94 319.6L37.07 319.6L37.07 127.83L238.94 127.83Z" id="d3lpfrD2dY"></path><path d="M276 125.88L138 125.88L0 125.88L69 62.94L138 0L207.01 62.94L276 125.88Z" id="cGKTJUray"></path><path d="M238.94 127.83L238.94 319.6L37.07 319.6L37.07 127.83L238.94 127.83Z" id="cpmujCP7y"></path><path d="M276 125.88L138 125.88L0 125.88L69 62.94L138 0L207.01 62.94L276 125.88Z" id="b3OOM2pvoY"></path></defs><g><g><g><g><use xlink:href="#g5or3PKnLg" opacity="1" fill="#000000" fill-opacity="1"></use><g><use xlink:href="#g5or3PKnLg" opacity="1" fill-opacity="0" stroke="#000000" stroke-width="1" stroke-opacity="0"></use></g></g><g><use xlink:href="#eRRvFhlrC" opacity="1" fill="#000000" fill-opacity="1"></use><g><use xlink:href="#eRRvFhlrC" opacity="1" fill-opacity="0" stroke="#000000" stroke-width="1" stroke-opacity="0"></use></g></g></g><g><g><use xlink:href="#d3lpfrD2dY" opacity="1" fill="#050000" fill-opacity="1"></use><g><use xlink:href="#d3lpfrD2dY" opacity="1" fill-opacity="0" stroke="#000000" stroke-width="1" stroke-opacity="0"></use></g></g><g><use xlink:href="#cGKTJUray" opacity="1" fill="#050000" fill-opacity="1"></use><g><use xlink:href="#cGKTJUray" opacity="1" fill-opacity="0" stroke="#000000" stroke-width="1" stroke-opacity="0"></use></g></g><g><use xlink:href="#cpmujCP7y" opacity="1" fill="#050000" fill-opacity="1"></use><g><use xlink:href="#cpmujCP7y" opacity="1" fill-opacity="0" stroke="#000000" stroke-width="1" stroke-opacity="0"></use></g></g><g><use xlink:href="#b3OOM2pvoY" opacity="1" fill="#050000" fill-opacity="1"></use><g><use xlink:href="#b3OOM2pvoY" opacity="1" fill-opacity="0" stroke="#000000" stroke-width="1" stroke-opacity="0"></use></g></g></g></g></g></svg>