<?xml version="1.0" encoding="UTF-8" standalone="no"?>
<!DOCTYPE svg PUBLIC "-//W3C//DTD SVG 1.1//EN" "http://www.w3.org/Graphics/SVG/1.1/DTD/svg11.dtd">
<svg version="1.1" xmlns="http://www.w3.org/2000/svg" xmlns:xlink="http://www.w3.org/1999/xlink" preserveAspectRatio="xMidYMid meet" viewBox="0 0 276 325" width="276" height="325"><defs><path d="M749.5 125.15L749.5 312.87L547.62 312.87L547.62 125.15L749.5 125.15Z" id="cltZO9URY"></path><path d="M786.56 123.24L648.56 123.24L510.56 123.24L579.56 61.62L648.56 0L717.57 61.62L786.56 123.24Z" id="aHMT0gKnm"></path><path d="M-163.5 -461.62L-163.5 -276.72L-356.57 -276.72L-356.57 -461.62L-163.5 -461.62Z" id="caPFgXqU"></path><path d="M-128.06 -463.5L-260.04 -463.5L-392.02 -463.5L-326.03 -524.19L-260.04 -584.88L-194.04 -524.19L-128.06 -463.5Z" id="a2fp8can0"></path><path d="M-163.5 -461.62L-163.5 -276.72L-356.57 -276.72L-356.57 -461.62L-163.5 -461.62Z" id="c6cwfHLLW1"></path><path d="M-128.06 -463.5L-260.04 -463.5L-392.02 -463.5L-326.03 -524.19L-260.04 -584.88L-194.04 -524.19L-128.06 -463.5Z" id="aHOget9nM"></path><path d="M-504.07 -20.55L-504.07 171.21L-705.94 171.21L-705.94 -20.55L-504.07 -20.55Z" id="h8JO3FCnwy"></path><path d="M-467.01 -22.5L-605.01 -22.5L-743.01 -22.5L-674.01 -85.44L-605.01 -148.39L-536 -85.44L-467.01 -22.5Z" id="c4oaOc02o3"></path><path d="M-504.07 -20.55L-504.07 171.21L-705.94 171.21L-705.94 -20.55L-504.07 -20.55Z" id="b26EcyFJPA"></path><path d="M-467.01 -22.5L-605.01 -22.5L-743.01 -22.5L-674.01 -85.44L-605.01 -148.39L-536 -85.44L-467.01 -22.5Z" id="a31ckKV4Jy"></path><path d="M207.63 -484.24L207.63 -292.48L5.76 -292.48L5.76 -484.24L207.63 -484.24Z" id="baqK0krau"></path><path d="M244.69 -486.19L106.69 -486.19L-31.31 -486.19L37.69 -549.14L106.69 -612.08L175.7 -549.14L244.69 -486.19Z" id="b2sya2vSPA"></path><path d="M207.63 -484.24L207.63 -292.48L5.76 -292.48L5.76 -484.24L207.63 -484.24Z" id="aHL5FArRS"></path><path d="M244.69 -486.19L106.69 -486.19L-31.31 -486.19L37.69 -549.14L106.69 -612.08L175.7 -549.14L244.69 -486.19Z" id="aqXozbfFO"></path><path d="M-471.87 336.67L-471.87 521.57L-664.93 521.57L-664.93 336.67L-471.87 336.67Z" id="daMo7krIm"></path><path d="M-436.43 334.79L-568.41 334.79L-700.38 334.79L-634.4 274.1L-568.41 213.41L-502.41 274.1L-436.43 334.79Z" id="f1KXcamFF"></path><path d="M-471.87 336.67L-471.87 521.57L-664.93 521.57L-664.93 336.67L-471.87 336.67Z" id="b7vIj3YafX"></path><path d="M-436.43 334.79L-568.41 334.79L-700.38 334.79L-634.4 274.1L-568.41 213.41L-502.41 274.1L-436.43 334.79Z" id="b2kUmUis6k"></path><path d="M238.94 127.83L238.94 319.6L37.07 319.6L37.07 127.83L238.94 127.83Z" id="f3E3QMVnbg"></path><path d="M276 125.88L138 125.88L0 125.88L69 62.94L138 0L207.01 62.94L276 125.88Z" id="b9PbMNxwjV"></path><path d="M238.94 127.83L238.94 319.6L37.07 319.6L37.07 127.83L238.94 127.83Z" id="a2jUSh3cyg"></path><path d="M276 125.88L138 125.88L0 125.88L69 62.94L138 0L207.01 62.94L276 125.88Z" id="dkyPeTokX"></path></defs><g><g><g><g><g><filter id="shadow1012168" x="538.62" y="116.15" width="220.87" height="206.73" filterUnits="userSpaceOnUse" primitiveUnits="userSpaceOnUse"><feFlood></feFlood><feComposite in2="SourceAlpha" operator="in"></feComposite><feGaussianBlur stdDeviation="1"></feGaussianBlur><feOffset dx="1" dy="1" result="afterOffset"></feOffset><feFlood flood-color="#000000" flood-opacity="0.5"></feFlood><feComposite in2="afterOffset" operator="in"></feComposite><feMorphology operator="dilate" radius="1"></feMorphology><feComposite in2="SourceAlpha" operator="out"></feComposite></filter><path d="M749.5 125.15L749.5 312.87L547.62 312.87L547.62 125.15L749.5 125.15Z" id="a4G9gtUadp" fill="white" fill-opacity="1" filter="url(#shadow1012168)"></path></g><use xlink:href="#cltZO9URY" opacity="1" fill="#868591" fill-opacity="1"></use><g><use xlink:href="#cltZO9URY" opacity="1" fill-opacity="0" stroke="#000000" stroke-width="1" stroke-opacity="0"></use></g></g><g><g><filter id="shadow13166755" x="501.56" y="-9" width="295" height="142.24" filterUnits="userSpaceOnUse" primitiveUnits="userSpaceOnUse"><feFlood></feFlood><feComposite in2="SourceAlpha" operator="in"></feComposite><feGaussianBlur stdDeviation="1"></feGaussianBlur><feOffset dx="1" dy="1" result="afterOffset"></feOffset><feFlood flood-color="#000000" flood-opacity="0.5"></feFlood><feComposite in2="afterOffset" operator="in"></feComposite><feMorphology operator="dilate" radius="1"></feMorphology><feComposite in2="SourceAlpha" operator="out"></feComposite></filter><path d="M786.56 123.24L648.56 123.24L510.56 123.24L579.56 61.62L648.56 0L717.57 61.62L786.56 123.24Z" id="axo4zUrVD" fill="white" fill-opacity="1" filter="url(#shadow13166755)"></path></g><use xlink:href="#aHMT0gKnm" opacity="1" fill="#868591" fill-opacity="1"></use><g><use xlink:href="#aHMT0gKnm" opacity="1" fill-opacity="0" stroke="#000000" stroke-width="1" stroke-opacity="0"></use></g></g></g><g><g><g><filter id="shadow14133646" x="-409.57" y="-514.62" width="300.07" height="291.9" filterUnits="userSpaceOnUse" primitiveUnits="userSpaceOnUse"><feFlood></feFlood><feComposite in2="SourceAlpha" operator="in"></feComposite><feGaussianBlur stdDeviation="4.58"></feGaussianBlur><feOffset dx="1" dy="1" result="afterOffset"></feOffset><feFlood flood-color="#3627e7" flood-opacity="0.5"></feFlood><feComposite in2="afterOffset" operator="in"></feComposite><feMorphology operator="dilate" radius="5"></feMorphology><feComposite in2="SourceAlpha" operator="out"></feComposite></filter><path d="M-163.5 -461.62L-163.5 -276.72L-356.57 -276.72L-356.57 -461.62L-163.5 -461.62Z" id="aqagiAkeR" fill="white" fill-opacity="1" filter="url(#shadow14133646)"></path></g><use xlink:href="#caPFgXqU" opacity="1" fill="#ff7100" fill-opacity="1"></use><g><use xlink:href="#caPFgXqU" opacity="1" fill-opacity="0" stroke="#000000" stroke-width="1" stroke-opacity="0"></use></g></g><g><g><filter id="shadow7916997" x="-445.02" y="-637.88" width="370.96" height="228.38" filterUnits="userSpaceOnUse" primitiveUnits="userSpaceOnUse"><feFlood></feFlood><feComposite in2="SourceAlpha" operator="in"></feComposite><feGaussianBlur stdDeviation="4.58"></feGaussianBlur><feOffset dx="1" dy="1" result="afterOffset"></feOffset><feFlood flood-color="#3627e7" flood-opacity="0.5"></feFlood><feComposite in2="afterOffset" operator="in"></feComposite><feMorphology operator="dilate" radius="5"></feMorphology><feComposite in2="SourceAlpha" operator="out"></feComposite></filter><path d="M-128.06 -463.5L-260.04 -463.5L-392.02 -463.5L-326.03 -524.19L-260.04 -584.88L-194.04 -524.19L-128.06 -463.5Z" id="a3d7Xj79I" fill="white" fill-opacity="1" filter="url(#shadow7916997)"></path></g><use xlink:href="#a2fp8can0" opacity="1" fill="#ff7100" fill-opacity="1"></use><g><use xlink:href="#a2fp8can0" opacity="1" fill-opacity="0" stroke="#000000" stroke-width="1" stroke-opacity="0"></use></g></g><g><g><filter id="shadow6169983" x="-409.57" y="-514.62" width="300.07" height="291.9" filterUnits="userSpaceOnUse" primitiveUnits="userSpaceOnUse"><feFlood></feFlood><feComposite in2="SourceAlpha" operator="in"></feComposite><feGaussianBlur stdDeviation="4.58"></feGaussianBlur><feOffset dx="1" dy="1" result="afterOffset"></feOffset><feFlood flood-color="#3627e7" flood-opacity="0.5"></feFlood><feComposite in2="afterOffset" operator="in"></feComposite><feMorphology operator="dilate" radius="5"></feMorphology><feComposite in2="SourceAlpha" operator="out"></feComposite></filter><path d="M-163.5 -461.62L-163.5 -276.72L-356.57 -276.72L-356.57 -461.62L-163.5 -461.62Z" id="aPGw0mzYz" fill="white" fill-opacity="1" filter="url(#shadow6169983)"></path></g><use xlink:href="#c6cwfHLLW1" opacity="1" fill="#ff7100" fill-opacity="1"></use><g><use xlink:href="#c6cwfHLLW1" opacity="1" fill-opacity="0" stroke="#000000" stroke-width="1" stroke-opacity="0"></use></g></g><g><g><filter id="shadow6030527" x="-445.02" y="-637.88" width="370.96" height="228.38" filterUnits="userSpaceOnUse" primitiveUnits="userSpaceOnUse"><feFlood></feFlood><feComposite in2="SourceAlpha" operator="in"></feComposite><feGaussianBlur stdDeviation="4.58"></feGaussianBlur><feOffset dx="1" dy="1" result="afterOffset"></feOffset><feFlood flood-color="#3627e7" flood-opacity="0.5"></feFlood><feComposite in2="afterOffset" operator="in"></feComposite><feMorphology operator="dilate" radius="5"></feMorphology><feComposite in2="SourceAlpha" operator="out"></feComposite></filter><path d="M-128.06 -463.5L-260.04 -463.5L-392.02 -463.5L-326.03 -524.19L-260.04 -584.88L-194.04 -524.19L-128.06 -463.5Z" id="b1RagXjOmx" fill="white" fill-opacity="1" filter="url(#shadow6030527)"></path></g><use xlink:href="#aHOget9nM" opacity="1" fill="#ff7100" fill-opacity="1"></use><g><use xlink:href="#aHOget9nM" opacity="1" fill-opacity="0" stroke="#000000" stroke-width="1" stroke-opacity="0"></use></g></g></g><g><g><use xlink:href="#h8JO3FCnwy" opacity="1" fill="#050000" fill-opacity="1"></use><g><use xlink:href="#h8JO3FCnwy" opacity="1" fill-opacity="0" stroke="#000000" stroke-width="1" stroke-opacity="0"></use></g></g><g><use xlink:href="#c4oaOc02o3" opacity="1" fill="#050000" fill-opacity="1"></use><g><use xlink:href="#c4oaOc02o3" opacity="1" fill-opacity="0" stroke="#000000" stroke-width="1" stroke-opacity="0"></use></g></g><g><use xlink:href="#b26EcyFJPA" opacity="1" fill="#050000" fill-opacity="1"></use><g><use xlink:href="#b26EcyFJPA" opacity="1" fill-opacity="0" stroke="#000000" stroke-width="1" stroke-opacity="0"></use></g></g><g><use xlink:href="#a31ckKV4Jy" opacity="1" fill="#050000" fill-opacity="1"></use><g><use xlink:href="#a31ckKV4Jy" opacity="1" fill-opacity="0" stroke="#000000" stroke-width="1" stroke-opacity="0"></use></g></g></g><g><g><use xlink:href="#baqK0krau" opacity="1" fill="#ff7100" fill-opacity="1"></use><g><use xlink:href="#baqK0krau" opacity="1" fill-opacity="0" stroke="#000000" stroke-width="1" stroke-opacity="0"></use></g></g><g><use xlink:href="#b2sya2vSPA" opacity="1" fill="#ff7100" fill-opacity="1"></use><g><use xlink:href="#b2sya2vSPA" opacity="1" fill-opacity="0" stroke="#000000" stroke-width="1" stroke-opacity="0"></use></g></g><g><use xlink:href="#aHL5FArRS" opacity="1" fill="#ff7100" fill-opacity="1"></use><g><use xlink:href="#aHL5FArRS" opacity="1" fill-opacity="0" stroke="#000000" stroke-width="1" stroke-opacity="0"></use></g></g><g><use xlink:href="#aqXozbfFO" opacity="1" fill="#ff7100" fill-opacity="1"></use><g><use xlink:href="#aqXozbfFO" opacity="1" fill-opacity="0" stroke="#000000" stroke-width="1" stroke-opacity="0"></use></g></g></g><g><g><g><filter id="shadow7407001" x="-717.93" y="283.67" width="300.07" height="291.9" filterUnits="userSpaceOnUse" primitiveUnits="userSpaceOnUse"><feFlood></feFlood><feComposite in2="SourceAlpha" operator="in"></feComposite><feGaussianBlur stdDeviation="4.58"></feGaussianBlur><feOffset dx="1" dy="1" result="afterOffset"></feOffset><feFlood flood-color="#3627e7" flood-opacity="0.5"></feFlood><feComposite in2="afterOffset" operator="in"></feComposite><feMorphology operator="dilate" radius="5"></feMorphology><feComposite in2="SourceAlpha" operator="out"></feComposite></filter><path d="M-471.87 336.67L-471.87 521.57L-664.93 521.57L-664.93 336.67L-471.87 336.67Z" id="b2fvvq3AeU" fill="white" fill-opacity="1" filter="url(#shadow7407001)"></path></g><use xlink:href="#daMo7krIm" opacity="1" fill="#050000" fill-opacity="1"></use><g><use xlink:href="#daMo7krIm" opacity="1" fill-opacity="0" stroke="#000000" stroke-width="1" stroke-opacity="0"></use></g></g><g><g><filter id="shadow7507024" x="-753.38" y="160.41" width="370.96" height="228.38" filterUnits="userSpaceOnUse" primitiveUnits="userSpaceOnUse"><feFlood></feFlood><feComposite in2="SourceAlpha" operator="in"></feComposite><feGaussianBlur stdDeviation="4.58"></feGaussianBlur><feOffset dx="1" dy="1" result="afterOffset"></feOffset><feFlood flood-color="#3627e7" flood-opacity="0.5"></feFlood><feComposite in2="afterOffset" operator="in"></feComposite><feMorphology operator="dilate" radius="5"></feMorphology><feComposite in2="SourceAlpha" operator="out"></feComposite></filter><path d="M-436.43 334.79L-568.41 334.79L-700.38 334.79L-634.4 274.1L-568.41 213.41L-502.41 274.1L-436.43 334.79Z" id="b6WcwuAPgw" fill="white" fill-opacity="1" filter="url(#shadow7507024)"></path></g><use xlink:href="#f1KXcamFF" opacity="1" fill="#050000" fill-opacity="1"></use><g><use xlink:href="#f1KXcamFF" opacity="1" fill-opacity="0" stroke="#000000" stroke-width="1" stroke-opacity="0"></use></g></g><g><g><filter id="shadow12491853" x="-717.93" y="283.67" width="300.07" height="291.9" filterUnits="userSpaceOnUse" primitiveUnits="userSpaceOnUse"><feFlood></feFlood><feComposite in2="SourceAlpha" operator="in"></feComposite><feGaussianBlur stdDeviation="4.58"></feGaussianBlur><feOffset dx="1" dy="1" result="afterOffset"></feOffset><feFlood flood-color="#3627e7" flood-opacity="0.5"></feFlood><feComposite in2="afterOffset" operator="in"></feComposite><feMorphology operator="dilate" radius="5"></feMorphology><feComposite in2="SourceAlpha" operator="out"></feComposite></filter><path d="M-471.87 336.67L-471.87 521.57L-664.93 521.57L-664.93 336.67L-471.87 336.67Z" id="f6e1wwm2Y" fill="white" fill-opacity="1" filter="url(#shadow12491853)"></path></g><use xlink:href="#b7vIj3YafX" opacity="1" fill="#050000" fill-opacity="1"></use><g><use xlink:href="#b7vIj3YafX" opacity="1" fill-opacity="0" stroke="#000000" stroke-width="1" stroke-opacity="0"></use></g></g><g><g><filter id="shadow9063296" x="-753.38" y="160.41" width="370.96" height="228.38" filterUnits="userSpaceOnUse" primitiveUnits="userSpaceOnUse"><feFlood></feFlood><feComposite in2="SourceAlpha" operator="in"></feComposite><feGaussianBlur stdDeviation="4.58"></feGaussianBlur><feOffset dx="1" dy="1" result="afterOffset"></feOffset><feFlood flood-color="#3627e7" flood-opacity="0.5"></feFlood><feComposite in2="afterOffset" operator="in"></feComposite><feMorphology operator="dilate" radius="5"></feMorphology><feComposite in2="SourceAlpha" operator="out"></feComposite></filter><path d="M-436.43 334.79L-568.41 334.79L-700.38 334.79L-634.4 274.1L-568.41 213.41L-502.41 274.1L-436.43 334.79Z" id="bGf1Yc1O5" fill="white" fill-opacity="1" filter="url(#shadow9063296)"></path></g><use xlink:href="#b2kUmUis6k" opacity="1" fill="#050000" fill-opacity="1"></use><g><use xlink:href="#b2kUmUis6k" opacity="1" fill-opacity="0" stroke="#000000" stroke-width="1" stroke-opacity="0"></use></g></g></g><g><g><use xlink:href="#f3E3QMVnbg" opacity="1" fill="#f22003" fill-opacity="1"></use><g><use xlink:href="#f3E3QMVnbg" opacity="1" fill-opacity="0" stroke="#000000" stroke-width="1" stroke-opacity="0"></use></g></g><g><use xlink:href="#b9PbMNxwjV" opacity="1" fill="#f22003" fill-opacity="1"></use><g><use xlink:href="#b9PbMNxwjV" opacity="1" fill-opacity="0" stroke="#000000" stroke-width="1" stroke-opacity="0"></use></g></g><g><use xlink:href="#a2jUSh3cyg" opacity="1" fill="#f22003" fill-opacity="1"></use><g><use xlink:href="#a2jUSh3cyg" opacity="1" fill-opacity="0" stroke="#000000" stroke-width="1" stroke-opacity="0"></use></g></g><g><use xlink:href="#dkyPeTokX" opacity="1" fill="#f22003" fill-opacity="1"></use><g><use xlink:href="#dkyPeTokX" opacity="1" fill-opacity="0" stroke="#000000" stroke-width="1" stroke-opacity="0"></use></g></g></g></g></g></svg>