<?xml version="1.0" encoding="UTF-8" standalone="no"?>
<!DOCTYPE svg PUBLIC "-//W3C//DTD SVG 1.1//EN" "http://www.w3.org/Graphics/SVG/1.1/DTD/svg11.dtd">
<svg version="1.1" xmlns="http://www.w3.org/2000/svg" xmlns:xlink="http://www.w3.org/1999/xlink" preserveAspectRatio="xMidYMid meet" viewBox="0 0 231 432" width="231" height="432"><defs><path d="M-234.93 -464.05L-234.93 -95.23L-461.2 -95.23L-461.2 -464.05L-234.93 -464.05Z" id="cC6TroDld"></path><path d="M-348.06 -437.09C-410.51 -437.09 -461.2 -449.18 -461.2 -464.05C-461.2 -478.93 -410.51 -491.01 -348.06 -491.01C-285.62 -491.01 -234.93 -478.93 -234.93 -464.05C-234.93 -449.18 -285.62 -437.09 -348.06 -437.09Z" id="e3CQmlJas"></path><path d="M-348.06 -437.09C-410.51 -437.09 -461.2 -449.18 -461.2 -464.05C-461.2 -478.93 -410.51 -491.01 -348.06 -491.01C-285.62 -491.01 -234.93 -478.93 -234.93 -464.05C-234.93 -449.18 -285.62 -437.09 -348.06 -437.09Z" id="b1803OD19f"></path><path d="M-348.06 -68.28C-410.51 -68.28 -461.2 -80.35 -461.2 -95.23C-461.2 -110.1 -410.51 -122.18 -348.06 -122.18C-285.62 -122.18 -234.93 -110.1 -234.93 -95.23C-234.93 -80.35 -285.62 -68.28 -348.06 -68.28Z" id="c3CfQp79Ep"></path><path d="M549.34 -271.67L549.34 86.98L338.41 86.98L338.41 -271.67L549.34 -271.67Z" id="a3tc7Ptwv"></path><path d="M443.88 -245.46C385.67 -245.46 338.41 -257.21 338.41 -271.67C338.41 -286.14 385.67 -297.89 443.88 -297.89C502.09 -297.89 549.34 -286.14 549.34 -271.67C549.34 -257.21 502.09 -245.46 443.88 -245.46Z" id="awrz9L2GV"></path><path d="M443.88 -245.46C385.67 -245.46 338.41 -257.21 338.41 -271.67C338.41 -286.14 385.67 -297.89 443.88 -297.89C502.09 -297.89 549.34 -286.14 549.34 -271.67C549.34 -257.21 502.09 -245.46 443.88 -245.46Z" id="b6wXrk4KjR"></path><path d="M443.88 113.18C385.67 113.18 338.41 101.45 338.41 86.98C338.41 72.51 385.67 60.77 443.88 60.77C502.09 60.77 549.34 72.51 549.34 86.98C549.34 101.45 502.09 113.18 443.88 113.18Z" id="c1M9vy7nO8"></path><path d="M-387.64 17.06L-387.64 385.87L-613.91 385.87L-613.91 17.06L-387.64 17.06Z" id="amWzZRrm3"></path><path d="M-500.78 44.02C-563.22 44.02 -613.91 31.93 -613.91 17.06C-613.91 2.18 -563.22 -9.9 -500.78 -9.9C-438.34 -9.9 -387.64 2.18 -387.64 17.06C-387.64 31.93 -438.34 44.02 -500.78 44.02Z" id="a1q5dMhQwM"></path><path d="M-500.78 44.02C-563.22 44.02 -613.91 31.93 -613.91 17.06C-613.91 2.18 -563.22 -9.9 -500.78 -9.9C-438.34 -9.9 -387.64 2.18 -387.64 17.06C-387.64 31.93 -438.34 44.02 -500.78 44.02Z" id="h31U1MXhW"></path><path d="M-500.78 412.83C-563.22 412.83 -613.91 400.76 -613.91 385.88C-613.91 371.01 -563.22 358.92 -500.78 358.92C-438.34 358.92 -387.64 371.01 -387.64 385.88C-387.64 400.76 -438.34 412.83 -500.78 412.83Z" id="arDbv6NEO"></path><path d="M199.43 -615.92L199.43 -255.71L-11.5 -255.71L-11.5 -615.92L199.43 -615.92Z" id="aUdhOVVKL"></path><path d="M93.96 -589.59C35.76 -589.59 -11.5 -601.39 -11.5 -615.92C-11.5 -630.45 35.76 -642.25 93.96 -642.25C152.17 -642.25 199.43 -630.45 199.43 -615.92C199.43 -601.39 152.17 -589.59 93.96 -589.59Z" id="a1CtGVvJlp"></path><path d="M93.96 -589.59C35.76 -589.59 -11.5 -601.39 -11.5 -615.92C-11.5 -630.45 35.76 -642.25 93.96 -642.25C152.17 -642.25 199.43 -630.45 199.43 -615.92C199.43 -601.39 152.17 -589.59 93.96 -589.59Z" id="a1BhD6Yuyh"></path><path d="M93.96 -229.38C35.76 -229.38 -11.5 -241.17 -11.5 -255.71C-11.5 -270.23 35.76 -282.03 93.96 -282.03C152.17 -282.03 199.43 -270.23 199.43 -255.71C199.43 -241.17 152.17 -229.38 93.96 -229.38Z" id="i3UA4jokGg"></path><path d="M228.63 26.96L228.63 395.77L2.37 395.77L2.37 26.96L228.63 26.96Z" id="a26ZrhYyiN"></path><path d="M115.5 53.91C53.06 53.91 2.37 41.83 2.37 26.96C2.37 12.08 53.06 0 115.5 0C177.94 0 228.63 12.08 228.63 26.96C228.63 41.83 177.94 53.91 115.5 53.91Z" id="b5rVpBHio"></path><path d="M115.5 53.91C53.06 53.91 2.37 41.83 2.37 26.96C2.37 12.08 53.06 0 115.5 0C177.94 0 228.63 12.08 228.63 26.96C228.63 41.83 177.94 53.91 115.5 53.91Z" id="e4BWYV0Sq4"></path><path d="M115.5 422.73C53.06 422.73 2.37 410.66 2.37 395.78C2.37 380.91 53.06 368.82 115.5 368.82C177.94 368.82 228.63 380.91 228.63 395.78C228.63 410.66 177.94 422.73 115.5 422.73Z" id="a42lx4R6Yi"></path></defs><g><g><g><g><use xlink:href="#cC6TroDld" opacity="1" fill="#656566" fill-opacity="1"></use><g><use xlink:href="#cC6TroDld" opacity="1" fill-opacity="0" stroke="#000000" stroke-width="1" stroke-opacity="0"></use></g></g><g><use xlink:href="#e3CQmlJas" opacity="1" fill="#a2a2a2" fill-opacity="1"></use><g><use xlink:href="#e3CQmlJas" opacity="1" fill-opacity="0" stroke="#000000" stroke-width="1" stroke-opacity="0"></use></g></g><g><use xlink:href="#b1803OD19f" opacity="1" fill="#000000" fill-opacity="0"></use><g><use xlink:href="#b1803OD19f" opacity="1" fill-opacity="0" stroke="#000000" stroke-width="3.5" stroke-opacity="1"></use></g></g><g><use xlink:href="#c3CfQp79Ep" opacity="1" fill="#656566" fill-opacity="1"></use><g><use xlink:href="#c3CfQp79Ep" opacity="1" fill-opacity="0" stroke="#000000" stroke-width="1" stroke-opacity="0"></use></g></g></g><g><g><filter id="shadow3131697" x="263.41" y="-346.67" width="361.93" height="513.64" filterUnits="userSpaceOnUse" primitiveUnits="userSpaceOnUse"><feFlood></feFlood><feComposite in2="SourceAlpha" operator="in"></feComposite><feGaussianBlur stdDeviation="5.39"></feGaussianBlur><feOffset dx="1" dy="5" result="afterOffset"></feOffset><feFlood flood-color="#2720d7" flood-opacity="0.5"></feFlood><feComposite in2="afterOffset" operator="in"></feComposite><feMorphology operator="dilate" radius="7"></feMorphology><feComposite in2="SourceAlpha" operator="out"></feComposite></filter><path d="M549.34 -271.67L549.34 86.98L338.41 86.98L338.41 -271.67L549.34 -271.67Z" id="aASD5iqM1" fill="white" fill-opacity="1" filter="url(#shadow3131697)"></path></g><use xlink:href="#a3tc7Ptwv" opacity="1" fill="#656566" fill-opacity="1"></use><g><use xlink:href="#a3tc7Ptwv" opacity="1" fill-opacity="0" stroke="#000000" stroke-width="1" stroke-opacity="0"></use></g></g><g><g><filter id="shadow4061041" x="267.41" y="-368.89" width="353.93" height="195.43" filterUnits="userSpaceOnUse" primitiveUnits="userSpaceOnUse"><feFlood></feFlood><feComposite in2="SourceAlpha" operator="in"></feComposite><feGaussianBlur stdDeviation="5.39"></feGaussianBlur><feOffset dx="1" dy="1" result="afterOffset"></feOffset><feFlood flood-color="#2720d7" flood-opacity="0.5"></feFlood><feComposite in2="afterOffset" operator="in"></feComposite><feMorphology operator="dilate" radius="7"></feMorphology><feComposite in2="SourceAlpha" operator="out"></feComposite></filter><path d="M443.88 -245.46C385.67 -245.46 338.41 -257.21 338.41 -271.67C338.41 -286.14 385.67 -297.89 443.88 -297.89C502.09 -297.89 549.34 -286.14 549.34 -271.67C549.34 -257.21 502.09 -245.46 443.88 -245.46Z" id="g1X9q9DGhO" fill="white" fill-opacity="1" filter="url(#shadow4061041)"></path></g><use xlink:href="#awrz9L2GV" opacity="1" fill="#a2a2a2" fill-opacity="1"></use><g><use xlink:href="#awrz9L2GV" opacity="1" fill-opacity="0" stroke="#000000" stroke-width="1" stroke-opacity="0"></use></g></g><g><use xlink:href="#b6wXrk4KjR" opacity="1" fill="#000000" fill-opacity="0"></use><g><use xlink:href="#b6wXrk4KjR" opacity="1" fill-opacity="0" stroke="#000000" stroke-width="3.5" stroke-opacity="1"></use></g></g><g><g><filter id="shadow5704629" x="263.41" y="-14.23" width="360.93" height="214.42" filterUnits="userSpaceOnUse" primitiveUnits="userSpaceOnUse"><feFlood></feFlood><feComposite in2="SourceAlpha" operator="in"></feComposite><feGaussianBlur stdDeviation="5.29"></feGaussianBlur><feOffset dx="0" dy="12" result="afterOffset"></feOffset><feFlood flood-color="#2720d7" flood-opacity="0.5"></feFlood><feComposite in2="afterOffset" operator="in"></feComposite><feMorphology operator="dilate" radius="2"></feMorphology><feComposite in2="SourceAlpha" operator="out"></feComposite></filter><path d="M443.88 113.18C385.67 113.18 338.41 101.45 338.41 86.98C338.41 72.51 385.67 60.77 443.88 60.77C502.09 60.77 549.34 72.51 549.34 86.98C549.34 101.45 502.09 113.18 443.88 113.18Z" id="b4mRTRBuyV" fill="white" fill-opacity="1" filter="url(#shadow5704629)"></path></g><use xlink:href="#c1M9vy7nO8" opacity="1" fill="#656566" fill-opacity="1"></use><g><use xlink:href="#c1M9vy7nO8" opacity="1" fill-opacity="0" stroke="#000000" stroke-width="1" stroke-opacity="0"></use></g></g><g><g><use xlink:href="#amWzZRrm3" opacity="1" fill="#000000" fill-opacity="1"></use><g><use xlink:href="#amWzZRrm3" opacity="1" fill-opacity="0" stroke="#000000" stroke-width="1" stroke-opacity="0"></use></g></g><g><use xlink:href="#a1q5dMhQwM" opacity="1" fill="#000000" fill-opacity="1"></use><g><use xlink:href="#a1q5dMhQwM" opacity="1" fill-opacity="0" stroke="#b3b3b3" stroke-width="1" stroke-opacity="1"></use></g></g><g><use xlink:href="#h31U1MXhW" opacity="1" fill="#000000" fill-opacity="0"></use><g><use xlink:href="#h31U1MXhW" opacity="1" fill-opacity="0" stroke="#b3b3b3" stroke-width="3.5" stroke-opacity="1"></use></g></g><g><use xlink:href="#arDbv6NEO" opacity="1" fill="#000000" fill-opacity="1"></use><g><use xlink:href="#arDbv6NEO" opacity="1" fill-opacity="0" stroke="#000000" stroke-width="1" stroke-opacity="0"></use></g></g></g><g><g><g><filter id="shadow5591173" x="-86.5" y="-690.92" width="361.93" height="515.21" filterUnits="userSpaceOnUse" primitiveUnits="userSpaceOnUse"><feFlood></feFlood><feComposite in2="SourceAlpha" operator="in"></feComposite><feGaussianBlur stdDeviation="5.39"></feGaussianBlur><feOffset dx="1" dy="5" result="afterOffset"></feOffset><feFlood flood-color="#271fd7" flood-opacity="0.5"></feFlood><feComposite in2="afterOffset" operator="in"></feComposite><feMorphology operator="dilate" radius="7"></feMorphology><feComposite in2="SourceAlpha" operator="out"></feComposite></filter><path d="M199.43 -615.92L199.43 -255.71L-11.5 -255.71L-11.5 -615.92L199.43 -615.92Z" id="bbU3TlA1E" fill="white" fill-opacity="1" filter="url(#shadow5591173)"></path></g><use xlink:href="#aUdhOVVKL" opacity="1" fill="#000000" fill-opacity="1"></use><g><use xlink:href="#aUdhOVVKL" opacity="1" fill-opacity="0" stroke="#000000" stroke-width="1" stroke-opacity="0"></use></g></g><g><g><filter id="shadow13720761" x="-86.5" y="-717.25" width="361.93" height="207.66" filterUnits="userSpaceOnUse" primitiveUnits="userSpaceOnUse"><feFlood></feFlood><feComposite in2="SourceAlpha" operator="in"></feComposite><feGaussianBlur stdDeviation="5.39"></feGaussianBlur><feOffset dx="1" dy="5" result="afterOffset"></feOffset><feFlood flood-color="#271fd7" flood-opacity="0.5"></feFlood><feComposite in2="afterOffset" operator="in"></feComposite><feMorphology operator="dilate" radius="7"></feMorphology><feComposite in2="SourceAlpha" operator="out"></feComposite></filter><path d="M93.96 -589.59C35.76 -589.59 -11.5 -601.39 -11.5 -615.92C-11.5 -630.45 35.76 -642.25 93.96 -642.25C152.17 -642.25 199.43 -630.45 199.43 -615.92C199.43 -601.39 152.17 -589.59 93.96 -589.59Z" id="g1Y9wKgC0i" fill="white" fill-opacity="1" filter="url(#shadow13720761)"></path></g><use xlink:href="#a1CtGVvJlp" opacity="1" fill="#000000" fill-opacity="1"></use><g><use xlink:href="#a1CtGVvJlp" opacity="1" fill-opacity="0" stroke="#b3b3b3" stroke-width="1" stroke-opacity="1"></use></g></g><g><use xlink:href="#a1BhD6Yuyh" opacity="1" fill="#000000" fill-opacity="0"></use><g><use xlink:href="#a1BhD6Yuyh" opacity="1" fill-opacity="0" stroke="#b3b3b3" stroke-width="3.5" stroke-opacity="1"></use></g></g><g><g><filter id="shadow2471185" x="-86.5" y="-357.03" width="361.93" height="214.65" filterUnits="userSpaceOnUse" primitiveUnits="userSpaceOnUse"><feFlood></feFlood><feComposite in2="SourceAlpha" operator="in"></feComposite><feGaussianBlur stdDeviation="5.29"></feGaussianBlur><feOffset dx="1" dy="12" result="afterOffset"></feOffset><feFlood flood-color="#271fd7" flood-opacity="0.5"></feFlood><feComposite in2="afterOffset" operator="in"></feComposite><feMorphology operator="dilate" radius="2"></feMorphology><feComposite in2="SourceAlpha" operator="out"></feComposite></filter><path d="M93.96 -229.38C35.76 -229.38 -11.5 -241.17 -11.5 -255.71C-11.5 -270.23 35.76 -282.03 93.96 -282.03C152.17 -282.03 199.43 -270.23 199.43 -255.71C199.43 -241.17 152.17 -229.38 93.96 -229.38Z" id="i6g2zYzD6g" fill="white" fill-opacity="1" filter="url(#shadow2471185)"></path></g><use xlink:href="#i3UA4jokGg" opacity="1" fill="#000000" fill-opacity="1"></use><g><use xlink:href="#i3UA4jokGg" opacity="1" fill-opacity="0" stroke="#000000" stroke-width="1" stroke-opacity="0"></use></g></g></g><g><g><use xlink:href="#a26ZrhYyiN" opacity="1" fill="#f22003" fill-opacity="1"></use><g><use xlink:href="#a26ZrhYyiN" opacity="1" fill-opacity="0" stroke="#000000" stroke-width="1" stroke-opacity="0"></use></g></g><g><use xlink:href="#b5rVpBHio" opacity="1" fill="#f22003" fill-opacity="1"></use><g><use xlink:href="#b5rVpBHio" opacity="1" fill-opacity="0" stroke="#b3b3b3" stroke-width="1" stroke-opacity="1"></use></g></g><g><use xlink:href="#e4BWYV0Sq4" opacity="1" fill="#f22003" fill-opacity="1"></use><g><use xlink:href="#e4BWYV0Sq4" opacity="1" fill-opacity="0" stroke="#000000" stroke-width="3.5" stroke-opacity="1"></use></g></g><g><use xlink:href="#a42lx4R6Yi" opacity="1" fill="#f22003" fill-opacity="1"></use><g><use xlink:href="#a42lx4R6Yi" opacity="1" fill-opacity="0" stroke="#000000" stroke-width="1" stroke-opacity="0"></use></g></g></g></g></g></svg>