<?xml version="1.0" encoding="UTF-8" standalone="no"?>
<!DOCTYPE svg PUBLIC "-//W3C//DTD SVG 1.1//EN" "http://www.w3.org/Graphics/SVG/1.1/DTD/svg11.dtd">
<svg version="1.1" xmlns="http://www.w3.org/2000/svg" xmlns:xlink="http://www.w3.org/1999/xlink" preserveAspectRatio="xMidYMid meet" viewBox="0 0 276 325" width="276" height="325"><defs><path d="M238.94 125.15L238.94 312.87L37.07 312.87L37.07 125.15L238.94 125.15Z" id="c3a3uBmnT"></path><path d="M276 123.24L138 123.24L0 123.24L69 61.62L138 0L207.01 61.62L276 123.24Z" id="b4gtR4Rs6"></path><path d="M-307.73 387.83L-307.73 579.6L-509.6 579.6L-509.6 387.83L-307.73 387.83Z" id="c18bc4GmI4"></path><path d="M-270.67 385.88L-408.67 385.88L-546.67 385.88L-477.67 322.94L-408.67 260L-339.66 322.94L-270.67 385.88Z" id="a1KH00HHjc"></path><path d="M-307.73 387.83L-307.73 579.6L-509.6 579.6L-509.6 387.83L-307.73 387.83Z" id="d3aA2ibgBM"></path><path d="M-270.67 385.88L-408.67 385.88L-546.67 385.88L-477.67 322.94L-408.67 260L-339.66 322.94L-270.67 385.88Z" id="aNUyMHQg4"></path></defs><g><g><g><g><use xlink:href="#c3a3uBmnT" opacity="1" fill="#868591" fill-opacity="1"></use><g><use xlink:href="#c3a3uBmnT" opacity="1" fill-opacity="0" stroke="#000000" stroke-width="1" stroke-opacity="0"></use></g></g><g><use xlink:href="#b4gtR4Rs6" opacity="1" fill="#868591" fill-opacity="1"></use><g><use xlink:href="#b4gtR4Rs6" opacity="1" fill-opacity="0" stroke="#000000" stroke-width="1" stroke-opacity="0"></use></g></g></g><g><g><use xlink:href="#c18bc4GmI4" opacity="1" fill="#050000" fill-opacity="1"></use><g><use xlink:href="#c18bc4GmI4" opacity="1" fill-opacity="0" stroke="#000000" stroke-width="1" stroke-opacity="0"></use></g></g><g><use xlink:href="#a1KH00HHjc" opacity="1" fill="#050000" fill-opacity="1"></use><g><use xlink:href="#a1KH00HHjc" opacity="1" fill-opacity="0" stroke="#000000" stroke-width="1" stroke-opacity="0"></use></g></g><g><use xlink:href="#d3aA2ibgBM" opacity="1" fill="#050000" fill-opacity="1"></use><g><use xlink:href="#d3aA2ibgBM" opacity="1" fill-opacity="0" stroke="#000000" stroke-width="1" stroke-opacity="0"></use></g></g><g><use xlink:href="#aNUyMHQg4" opacity="1" fill="#050000" fill-opacity="1"></use><g><use xlink:href="#aNUyMHQg4" opacity="1" fill-opacity="0" stroke="#000000" stroke-width="1" stroke-opacity="0"></use></g></g></g></g></g></svg>