<?xml version="1.0" encoding="UTF-8" standalone="no"?>
<!DOCTYPE svg PUBLIC "-//W3C//DTD SVG 1.1//EN" "http://www.w3.org/Graphics/SVG/1.1/DTD/svg11.dtd">
<svg version="1.1" xmlns="http://www.w3.org/2000/svg" xmlns:xlink="http://www.w3.org/1999/xlink" preserveAspectRatio="xMidYMid meet" viewBox="0 0 276 325" width="276" height="325"><defs><path d="M749.5 183.48L749.5 371.21L547.62 371.21L547.62 183.48L749.5 183.48Z" id="aam2X7qhH"></path><path d="M786.56 181.57L648.56 181.57L510.56 181.57L579.56 119.95L648.56 58.33L717.57 119.95L786.56 181.57Z" id="a4M2eMtfa"></path><path d="M199.68 528.58L199.68 720.34L-2.19 720.34L-2.19 528.58L199.68 528.58Z" id="jWkPFBKt4"></path><path d="M236.74 526.63L98.74 526.63L-39.26 526.63L29.74 463.68L98.74 400.74L167.75 463.68L236.74 526.63Z" id="dkGWMyR2L"></path><path d="M199.68 528.58L199.68 720.34L-2.19 720.34L-2.19 528.58L199.68 528.58Z" id="c1CfMNoxb9"></path><path d="M236.74 526.63L98.74 526.63L-39.26 526.63L29.74 463.68L98.74 400.74L167.75 463.68L236.74 526.63Z" id="b2bBX2D6Yi"></path><path d="M233.75 130.52L233.75 315.42L40.69 315.42L40.69 130.52L233.75 130.52Z" id="a6KJU302y"></path><path d="M269.19 128.64L137.21 128.64L5.24 128.64L71.23 67.95L137.21 7.26L203.21 67.95L269.19 128.64Z" id="biaY1WqTL"></path><path d="M233.75 130.52L233.75 315.42L40.69 315.42L40.69 130.52L233.75 130.52Z" id="a5x1WC90d0"></path><path d="M269.19 128.64L137.21 128.64L5.24 128.64L71.23 67.95L137.21 7.26L203.21 67.95L269.19 128.64Z" id="fFSFsUJ79"></path></defs><g><g><g><g><g><filter id="shadow6152636" x="538.62" y="174.48" width="220.87" height="206.73" filterUnits="userSpaceOnUse" primitiveUnits="userSpaceOnUse"><feFlood></feFlood><feComposite in2="SourceAlpha" operator="in"></feComposite><feGaussianBlur stdDeviation="1"></feGaussianBlur><feOffset dx="1" dy="1" result="afterOffset"></feOffset><feFlood flood-color="#000000" flood-opacity="0.5"></feFlood><feComposite in2="afterOffset" operator="in"></feComposite><feMorphology operator="dilate" radius="1"></feMorphology><feComposite in2="SourceAlpha" operator="out"></feComposite></filter><path d="M749.5 183.48L749.5 371.21L547.62 371.21L547.62 183.48L749.5 183.48Z" id="aqUmtPUdA" fill="white" fill-opacity="1" filter="url(#shadow6152636)"></path></g><use xlink:href="#aam2X7qhH" opacity="1" fill="#868591" fill-opacity="1"></use><g><use xlink:href="#aam2X7qhH" opacity="1" fill-opacity="0" stroke="#000000" stroke-width="1" stroke-opacity="0"></use></g></g><g><g><filter id="shadow4198478" x="501.56" y="49.33" width="295" height="142.24" filterUnits="userSpaceOnUse" primitiveUnits="userSpaceOnUse"><feFlood></feFlood><feComposite in2="SourceAlpha" operator="in"></feComposite><feGaussianBlur stdDeviation="1"></feGaussianBlur><feOffset dx="1" dy="1" result="afterOffset"></feOffset><feFlood flood-color="#000000" flood-opacity="0.5"></feFlood><feComposite in2="afterOffset" operator="in"></feComposite><feMorphology operator="dilate" radius="1"></feMorphology><feComposite in2="SourceAlpha" operator="out"></feComposite></filter><path d="M786.56 181.57L648.56 181.57L510.56 181.57L579.56 119.95L648.56 58.33L717.57 119.95L786.56 181.57Z" id="h13Pn4kknu" fill="white" fill-opacity="1" filter="url(#shadow4198478)"></path></g><use xlink:href="#a4M2eMtfa" opacity="1" fill="#868591" fill-opacity="1"></use><g><use xlink:href="#a4M2eMtfa" opacity="1" fill-opacity="0" stroke="#000000" stroke-width="1" stroke-opacity="0"></use></g></g></g><g><g><use xlink:href="#jWkPFBKt4" opacity="1" fill="#050000" fill-opacity="1"></use><g><use xlink:href="#jWkPFBKt4" opacity="1" fill-opacity="0" stroke="#000000" stroke-width="1" stroke-opacity="0"></use></g></g><g><use xlink:href="#dkGWMyR2L" opacity="1" fill="#050000" fill-opacity="1"></use><g><use xlink:href="#dkGWMyR2L" opacity="1" fill-opacity="0" stroke="#000000" stroke-width="1" stroke-opacity="0"></use></g></g><g><use xlink:href="#c1CfMNoxb9" opacity="1" fill="#050000" fill-opacity="1"></use><g><use xlink:href="#c1CfMNoxb9" opacity="1" fill-opacity="0" stroke="#000000" stroke-width="1" stroke-opacity="0"></use></g></g><g><use xlink:href="#b2bBX2D6Yi" opacity="1" fill="#050000" fill-opacity="1"></use><g><use xlink:href="#b2bBX2D6Yi" opacity="1" fill-opacity="0" stroke="#000000" stroke-width="1" stroke-opacity="0"></use></g></g></g><g><g><g><filter id="shadow8099833" x="-12.31" y="77.52" width="300.07" height="291.9" filterUnits="userSpaceOnUse" primitiveUnits="userSpaceOnUse"><feFlood></feFlood><feComposite in2="SourceAlpha" operator="in"></feComposite><feGaussianBlur stdDeviation="4.58"></feGaussianBlur><feOffset dx="1" dy="1" result="afterOffset"></feOffset><feFlood flood-color="#3628e8" flood-opacity="0.5"></feFlood><feComposite in2="afterOffset" operator="in"></feComposite><feMorphology operator="dilate" radius="5"></feMorphology><feComposite in2="SourceAlpha" operator="out"></feComposite></filter><path d="M233.75 130.52L233.75 315.42L40.69 315.42L40.69 130.52L233.75 130.52Z" id="ddcu2GTSp" fill="white" fill-opacity="1" filter="url(#shadow8099833)"></path></g><use xlink:href="#a6KJU302y" opacity="1" fill="#050000" fill-opacity="1"></use><g><use xlink:href="#a6KJU302y" opacity="1" fill-opacity="0" stroke="#000000" stroke-width="1" stroke-opacity="0"></use></g></g><g><g><filter id="shadow1875658" x="-47.76" y="-45.74" width="370.96" height="228.38" filterUnits="userSpaceOnUse" primitiveUnits="userSpaceOnUse"><feFlood></feFlood><feComposite in2="SourceAlpha" operator="in"></feComposite><feGaussianBlur stdDeviation="4.58"></feGaussianBlur><feOffset dx="1" dy="1" result="afterOffset"></feOffset><feFlood flood-color="#3628e8" flood-opacity="0.5"></feFlood><feComposite in2="afterOffset" operator="in"></feComposite><feMorphology operator="dilate" radius="5"></feMorphology><feComposite in2="SourceAlpha" operator="out"></feComposite></filter><path d="M269.19 128.64L137.21 128.64L5.24 128.64L71.23 67.95L137.21 7.26L203.21 67.95L269.19 128.64Z" id="b568lkMYpK" fill="white" fill-opacity="1" filter="url(#shadow1875658)"></path></g><use xlink:href="#biaY1WqTL" opacity="1" fill="#050000" fill-opacity="1"></use><g><use xlink:href="#biaY1WqTL" opacity="1" fill-opacity="0" stroke="#000000" stroke-width="1" stroke-opacity="0"></use></g></g><g><g><filter id="shadow3401791" x="-12.31" y="77.52" width="300.07" height="291.9" filterUnits="userSpaceOnUse" primitiveUnits="userSpaceOnUse"><feFlood></feFlood><feComposite in2="SourceAlpha" operator="in"></feComposite><feGaussianBlur stdDeviation="4.58"></feGaussianBlur><feOffset dx="1" dy="1" result="afterOffset"></feOffset><feFlood flood-color="#3628e8" flood-opacity="0.5"></feFlood><feComposite in2="afterOffset" operator="in"></feComposite><feMorphology operator="dilate" radius="5"></feMorphology><feComposite in2="SourceAlpha" operator="out"></feComposite></filter><path d="M233.75 130.52L233.75 315.42L40.69 315.42L40.69 130.52L233.75 130.52Z" id="bHqxqAEE0" fill="white" fill-opacity="1" filter="url(#shadow3401791)"></path></g><use xlink:href="#a5x1WC90d0" opacity="1" fill="#050000" fill-opacity="1"></use><g><use xlink:href="#a5x1WC90d0" opacity="1" fill-opacity="0" stroke="#000000" stroke-width="1" stroke-opacity="0"></use></g></g><g><g><filter id="shadow8274422" x="-47.76" y="-45.74" width="370.96" height="228.38" filterUnits="userSpaceOnUse" primitiveUnits="userSpaceOnUse"><feFlood></feFlood><feComposite in2="SourceAlpha" operator="in"></feComposite><feGaussianBlur stdDeviation="4.58"></feGaussianBlur><feOffset dx="1" dy="1" result="afterOffset"></feOffset><feFlood flood-color="#3628e8" flood-opacity="0.5"></feFlood><feComposite in2="afterOffset" operator="in"></feComposite><feMorphology operator="dilate" radius="5"></feMorphology><feComposite in2="SourceAlpha" operator="out"></feComposite></filter><path d="M269.19 128.64L137.21 128.64L5.24 128.64L71.23 67.95L137.21 7.26L203.21 67.95L269.19 128.64Z" id="a162b8FlnI" fill="white" fill-opacity="1" filter="url(#shadow8274422)"></path></g><use xlink:href="#fFSFsUJ79" opacity="1" fill="#050000" fill-opacity="1"></use><g><use xlink:href="#fFSFsUJ79" opacity="1" fill-opacity="0" stroke="#000000" stroke-width="1" stroke-opacity="0"></use></g></g></g></g></g></svg>