<?xml version="1.0" encoding="UTF-8" standalone="no"?>
<!DOCTYPE svg PUBLIC "-//W3C//DTD SVG 1.1//EN" "http://www.w3.org/Graphics/SVG/1.1/DTD/svg11.dtd">
<svg version="1.1" xmlns="http://www.w3.org/2000/svg" xmlns:xlink="http://www.w3.org/1999/xlink" preserveAspectRatio="xMidYMid meet" viewBox="0 0 231 432" width="231" height="432"><defs><path d="M-234.93 -464.05L-234.93 -95.23L-461.2 -95.23L-461.2 -464.05L-234.93 -464.05Z" id="cC6TroDld"></path><path d="M-348.06 -437.09C-410.51 -437.09 -461.2 -449.18 -461.2 -464.05C-461.2 -478.93 -410.51 -491.01 -348.06 -491.01C-285.62 -491.01 -234.93 -478.93 -234.93 -464.05C-234.93 -449.18 -285.62 -437.09 -348.06 -437.09Z" id="e3CQmlJas"></path><path d="M-348.06 -437.09C-410.51 -437.09 -461.2 -449.18 -461.2 -464.05C-461.2 -478.93 -410.51 -491.01 -348.06 -491.01C-285.62 -491.01 -234.93 -478.93 -234.93 -464.05C-234.93 -449.18 -285.62 -437.09 -348.06 -437.09Z" id="b1803OD19f"></path><path d="M-348.06 -68.28C-410.51 -68.28 -461.2 -80.35 -461.2 -95.23C-461.2 -110.1 -410.51 -122.18 -348.06 -122.18C-285.62 -122.18 -234.93 -110.1 -234.93 -95.23C-234.93 -80.35 -285.62 -68.28 -348.06 -68.28Z" id="c3CfQp79Ep"></path><path d="M549.34 -271.67L549.34 86.98L338.41 86.98L338.41 -271.67L549.34 -271.67Z" id="a3tc7Ptwv"></path><path d="M443.88 -245.46C385.67 -245.46 338.41 -257.21 338.41 -271.67C338.41 -286.14 385.67 -297.89 443.88 -297.89C502.09 -297.89 549.34 -286.14 549.34 -271.67C549.34 -257.21 502.09 -245.46 443.88 -245.46Z" id="awrz9L2GV"></path><path d="M443.88 -245.46C385.67 -245.46 338.41 -257.21 338.41 -271.67C338.41 -286.14 385.67 -297.89 443.88 -297.89C502.09 -297.89 549.34 -286.14 549.34 -271.67C549.34 -257.21 502.09 -245.46 443.88 -245.46Z" id="b6wXrk4KjR"></path><path d="M443.88 113.18C385.67 113.18 338.41 101.45 338.41 86.98C338.41 72.51 385.67 60.77 443.88 60.77C502.09 60.77 549.34 72.51 549.34 86.98C549.34 101.45 502.09 113.18 443.88 113.18Z" id="c1M9vy7nO8"></path><path d="M-183.43 713.13L-183.43 1081.95L-409.7 1081.95L-409.7 713.13L-183.43 713.13Z" id="aofYgdTJ1"></path><path d="M-296.57 740.09C-359.01 740.09 -409.7 728.01 -409.7 713.14C-409.7 698.26 -359.01 686.18 -296.57 686.18C-234.13 686.18 -183.43 698.26 -183.43 713.14C-183.43 728.01 -234.13 740.09 -296.57 740.09Z" id="b9FYEdlgS"></path><path d="M-296.57 740.09C-359.01 740.09 -409.7 728.01 -409.7 713.14C-409.7 698.26 -359.01 686.18 -296.57 686.18C-234.13 686.18 -183.43 698.26 -183.43 713.14C-183.43 728.01 -234.13 740.09 -296.57 740.09Z" id="b8izVaLAh"></path><path d="M-296.57 1108.91C-359.01 1108.91 -409.7 1096.83 -409.7 1081.95C-409.7 1067.08 -359.01 1055 -296.57 1055C-234.13 1055 -183.43 1067.08 -183.43 1081.95C-183.43 1096.83 -234.13 1108.91 -296.57 1108.91Z" id="a1pWuQfxxX"></path><path d="M221.97 34.08L221.97 394.29L11.03 394.29L11.03 34.08L221.97 34.08Z" id="d2CZVwZOZf"></path><path d="M116.5 60.41C58.29 60.41 11.03 48.61 11.03 34.08C11.03 19.55 58.29 7.75 116.5 7.75C174.71 7.75 221.97 19.55 221.97 34.08C221.97 48.61 174.71 60.41 116.5 60.41Z" id="b3hKehnMry"></path><path d="M116.5 60.41C58.29 60.41 11.03 48.61 11.03 34.08C11.03 19.55 58.29 7.75 116.5 7.75C174.71 7.75 221.97 19.55 221.97 34.08C221.97 48.61 174.71 60.41 116.5 60.41Z" id="bZT47YC3"></path><path d="M116.5 420.62C58.29 420.62 11.03 408.83 11.03 394.29C11.03 379.77 58.29 367.97 116.5 367.97C174.71 367.97 221.97 379.77 221.97 394.29C221.97 408.83 174.71 420.62 116.5 420.62Z" id="a6ycuNTp0"></path></defs><g><g><g><g><use xlink:href="#cC6TroDld" opacity="1" fill="#656566" fill-opacity="1"></use><g><use xlink:href="#cC6TroDld" opacity="1" fill-opacity="0" stroke="#000000" stroke-width="1" stroke-opacity="0"></use></g></g><g><use xlink:href="#e3CQmlJas" opacity="1" fill="#a2a2a2" fill-opacity="1"></use><g><use xlink:href="#e3CQmlJas" opacity="1" fill-opacity="0" stroke="#000000" stroke-width="1" stroke-opacity="0"></use></g></g><g><use xlink:href="#b1803OD19f" opacity="1" fill="#000000" fill-opacity="0"></use><g><use xlink:href="#b1803OD19f" opacity="1" fill-opacity="0" stroke="#000000" stroke-width="3.5" stroke-opacity="1"></use></g></g><g><use xlink:href="#c3CfQp79Ep" opacity="1" fill="#656566" fill-opacity="1"></use><g><use xlink:href="#c3CfQp79Ep" opacity="1" fill-opacity="0" stroke="#000000" stroke-width="1" stroke-opacity="0"></use></g></g></g><g><g><filter id="shadow3131697" x="263.41" y="-346.67" width="361.93" height="513.64" filterUnits="userSpaceOnUse" primitiveUnits="userSpaceOnUse"><feFlood></feFlood><feComposite in2="SourceAlpha" operator="in"></feComposite><feGaussianBlur stdDeviation="5.39"></feGaussianBlur><feOffset dx="1" dy="5" result="afterOffset"></feOffset><feFlood flood-color="#2720d7" flood-opacity="0.5"></feFlood><feComposite in2="afterOffset" operator="in"></feComposite><feMorphology operator="dilate" radius="7"></feMorphology><feComposite in2="SourceAlpha" operator="out"></feComposite></filter><path d="M549.34 -271.67L549.34 86.98L338.41 86.98L338.41 -271.67L549.34 -271.67Z" id="aASD5iqM1" fill="white" fill-opacity="1" filter="url(#shadow3131697)"></path></g><use xlink:href="#a3tc7Ptwv" opacity="1" fill="#656566" fill-opacity="1"></use><g><use xlink:href="#a3tc7Ptwv" opacity="1" fill-opacity="0" stroke="#000000" stroke-width="1" stroke-opacity="0"></use></g></g><g><g><filter id="shadow4061041" x="267.41" y="-368.89" width="353.93" height="195.43" filterUnits="userSpaceOnUse" primitiveUnits="userSpaceOnUse"><feFlood></feFlood><feComposite in2="SourceAlpha" operator="in"></feComposite><feGaussianBlur stdDeviation="5.39"></feGaussianBlur><feOffset dx="1" dy="1" result="afterOffset"></feOffset><feFlood flood-color="#2720d7" flood-opacity="0.5"></feFlood><feComposite in2="afterOffset" operator="in"></feComposite><feMorphology operator="dilate" radius="7"></feMorphology><feComposite in2="SourceAlpha" operator="out"></feComposite></filter><path d="M443.88 -245.46C385.67 -245.46 338.41 -257.21 338.41 -271.67C338.41 -286.14 385.67 -297.89 443.88 -297.89C502.09 -297.89 549.34 -286.14 549.34 -271.67C549.34 -257.21 502.09 -245.46 443.88 -245.46Z" id="g1X9q9DGhO" fill="white" fill-opacity="1" filter="url(#shadow4061041)"></path></g><use xlink:href="#awrz9L2GV" opacity="1" fill="#a2a2a2" fill-opacity="1"></use><g><use xlink:href="#awrz9L2GV" opacity="1" fill-opacity="0" stroke="#000000" stroke-width="1" stroke-opacity="0"></use></g></g><g><use xlink:href="#b6wXrk4KjR" opacity="1" fill="#000000" fill-opacity="0"></use><g><use xlink:href="#b6wXrk4KjR" opacity="1" fill-opacity="0" stroke="#000000" stroke-width="3.5" stroke-opacity="1"></use></g></g><g><g><filter id="shadow5704629" x="263.41" y="-14.23" width="360.93" height="214.42" filterUnits="userSpaceOnUse" primitiveUnits="userSpaceOnUse"><feFlood></feFlood><feComposite in2="SourceAlpha" operator="in"></feComposite><feGaussianBlur stdDeviation="5.29"></feGaussianBlur><feOffset dx="0" dy="12" result="afterOffset"></feOffset><feFlood flood-color="#2720d7" flood-opacity="0.5"></feFlood><feComposite in2="afterOffset" operator="in"></feComposite><feMorphology operator="dilate" radius="2"></feMorphology><feComposite in2="SourceAlpha" operator="out"></feComposite></filter><path d="M443.88 113.18C385.67 113.18 338.41 101.45 338.41 86.98C338.41 72.51 385.67 60.77 443.88 60.77C502.09 60.77 549.34 72.51 549.34 86.98C549.34 101.45 502.09 113.18 443.88 113.18Z" id="b4mRTRBuyV" fill="white" fill-opacity="1" filter="url(#shadow5704629)"></path></g><use xlink:href="#c1M9vy7nO8" opacity="1" fill="#656566" fill-opacity="1"></use><g><use xlink:href="#c1M9vy7nO8" opacity="1" fill-opacity="0" stroke="#000000" stroke-width="1" stroke-opacity="0"></use></g></g><g><g><use xlink:href="#aofYgdTJ1" opacity="1" fill="#000000" fill-opacity="1"></use><g><use xlink:href="#aofYgdTJ1" opacity="1" fill-opacity="0" stroke="#000000" stroke-width="1" stroke-opacity="0"></use></g></g><g><use xlink:href="#b9FYEdlgS" opacity="1" fill="#000000" fill-opacity="1"></use><g><use xlink:href="#b9FYEdlgS" opacity="1" fill-opacity="0" stroke="#b3b3b3" stroke-width="1" stroke-opacity="1"></use></g></g><g><use xlink:href="#b8izVaLAh" opacity="1" fill="#000000" fill-opacity="0"></use><g><use xlink:href="#b8izVaLAh" opacity="1" fill-opacity="0" stroke="#b3b3b3" stroke-width="3.5" stroke-opacity="1"></use></g></g><g><use xlink:href="#a1pWuQfxxX" opacity="1" fill="#000000" fill-opacity="1"></use><g><use xlink:href="#a1pWuQfxxX" opacity="1" fill-opacity="0" stroke="#000000" stroke-width="1" stroke-opacity="0"></use></g></g></g><g><g><g><filter id="shadow103720" x="-63.97" y="-40.92" width="361.93" height="515.21" filterUnits="userSpaceOnUse" primitiveUnits="userSpaceOnUse"><feFlood></feFlood><feComposite in2="SourceAlpha" operator="in"></feComposite><feGaussianBlur stdDeviation="5.39"></feGaussianBlur><feOffset dx="1" dy="5" result="afterOffset"></feOffset><feFlood flood-color="#271fd7" flood-opacity="0.5"></feFlood><feComposite in2="afterOffset" operator="in"></feComposite><feMorphology operator="dilate" radius="7"></feMorphology><feComposite in2="SourceAlpha" operator="out"></feComposite></filter><path d="M221.97 34.08L221.97 394.29L11.03 394.29L11.03 34.08L221.97 34.08Z" id="bMo52KL1H" fill="white" fill-opacity="1" filter="url(#shadow103720)"></path></g><use xlink:href="#d2CZVwZOZf" opacity="1" fill="#000000" fill-opacity="1"></use><g><use xlink:href="#d2CZVwZOZf" opacity="1" fill-opacity="0" stroke="#000000" stroke-width="1" stroke-opacity="0"></use></g></g><g><g><filter id="shadow3244621" x="-63.97" y="-67.25" width="361.93" height="207.66" filterUnits="userSpaceOnUse" primitiveUnits="userSpaceOnUse"><feFlood></feFlood><feComposite in2="SourceAlpha" operator="in"></feComposite><feGaussianBlur stdDeviation="5.39"></feGaussianBlur><feOffset dx="1" dy="5" result="afterOffset"></feOffset><feFlood flood-color="#271fd7" flood-opacity="0.5"></feFlood><feComposite in2="afterOffset" operator="in"></feComposite><feMorphology operator="dilate" radius="7"></feMorphology><feComposite in2="SourceAlpha" operator="out"></feComposite></filter><path d="M116.5 60.41C58.29 60.41 11.03 48.61 11.03 34.08C11.03 19.55 58.29 7.75 116.5 7.75C174.71 7.75 221.97 19.55 221.97 34.08C221.97 48.61 174.71 60.41 116.5 60.41Z" id="a3Ykuxjges" fill="white" fill-opacity="1" filter="url(#shadow3244621)"></path></g><use xlink:href="#b3hKehnMry" opacity="1" fill="#000000" fill-opacity="1"></use><g><use xlink:href="#b3hKehnMry" opacity="1" fill-opacity="0" stroke="#b3b3b3" stroke-width="1" stroke-opacity="1"></use></g></g><g><use xlink:href="#bZT47YC3" opacity="1" fill="#000000" fill-opacity="0"></use><g><use xlink:href="#bZT47YC3" opacity="1" fill-opacity="0" stroke="#b3b3b3" stroke-width="3.5" stroke-opacity="1"></use></g></g><g><g><filter id="shadow6996031" x="-63.97" y="292.97" width="361.93" height="214.65" filterUnits="userSpaceOnUse" primitiveUnits="userSpaceOnUse"><feFlood></feFlood><feComposite in2="SourceAlpha" operator="in"></feComposite><feGaussianBlur stdDeviation="5.29"></feGaussianBlur><feOffset dx="1" dy="12" result="afterOffset"></feOffset><feFlood flood-color="#271fd7" flood-opacity="0.5"></feFlood><feComposite in2="afterOffset" operator="in"></feComposite><feMorphology operator="dilate" radius="2"></feMorphology><feComposite in2="SourceAlpha" operator="out"></feComposite></filter><path d="M116.5 420.62C58.29 420.62 11.03 408.83 11.03 394.29C11.03 379.77 58.29 367.97 116.5 367.97C174.71 367.97 221.97 379.77 221.97 394.29C221.97 408.83 174.71 420.62 116.5 420.62Z" id="d79ivvEAn" fill="white" fill-opacity="1" filter="url(#shadow6996031)"></path></g><use xlink:href="#a6ycuNTp0" opacity="1" fill="#000000" fill-opacity="1"></use><g><use xlink:href="#a6ycuNTp0" opacity="1" fill-opacity="0" stroke="#000000" stroke-width="1" stroke-opacity="0"></use></g></g></g></g></g></svg>