<?xml version="1.0" encoding="UTF-8" standalone="no"?>
<!DOCTYPE svg PUBLIC "-//W3C//DTD SVG 1.1//EN" "http://www.w3.org/Graphics/SVG/1.1/DTD/svg11.dtd">
<svg version="1.1" xmlns="http://www.w3.org/2000/svg" xmlns:xlink="http://www.w3.org/1999/xlink" preserveAspectRatio="xMidYMid meet" viewBox="0 0 276 325" width="276" height="325"><defs><path d="M749.5 125.15L749.5 312.87L547.62 312.87L547.62 125.15L749.5 125.15Z" id="cltZO9URY"></path><path d="M786.56 123.24L648.56 123.24L510.56 123.24L579.56 61.62L648.56 0L717.57 61.62L786.56 123.24Z" id="aHMT0gKnm"></path><path d="M-163.5 -461.62L-163.5 -276.72L-356.57 -276.72L-356.57 -461.62L-163.5 -461.62Z" id="caPFgXqU"></path><path d="M-128.06 -463.5L-260.04 -463.5L-392.02 -463.5L-326.03 -524.19L-260.04 -584.88L-194.04 -524.19L-128.06 -463.5Z" id="a2fp8can0"></path><path d="M-163.5 -461.62L-163.5 -276.72L-356.57 -276.72L-356.57 -461.62L-163.5 -461.62Z" id="c6cwfHLLW1"></path><path d="M-128.06 -463.5L-260.04 -463.5L-392.02 -463.5L-326.03 -524.19L-260.04 -584.88L-194.04 -524.19L-128.06 -463.5Z" id="aHOget9nM"></path><path d="M-504.07 -20.55L-504.07 171.21L-705.94 171.21L-705.94 -20.55L-504.07 -20.55Z" id="h8JO3FCnwy"></path><path d="M-467.01 -22.5L-605.01 -22.5L-743.01 -22.5L-674.01 -85.44L-605.01 -148.39L-536 -85.44L-467.01 -22.5Z" id="c4oaOc02o3"></path><path d="M-504.07 -20.55L-504.07 171.21L-705.94 171.21L-705.94 -20.55L-504.07 -20.55Z" id="b26EcyFJPA"></path><path d="M-467.01 -22.5L-605.01 -22.5L-743.01 -22.5L-674.01 -85.44L-605.01 -148.39L-536 -85.44L-467.01 -22.5Z" id="a31ckKV4Jy"></path><path d="M207.63 -484.24L207.63 -292.48L5.76 -292.48L5.76 -484.24L207.63 -484.24Z" id="baqK0krau"></path><path d="M244.69 -486.19L106.69 -486.19L-31.31 -486.19L37.69 -549.14L106.69 -612.08L175.7 -549.14L244.69 -486.19Z" id="b2sya2vSPA"></path><path d="M207.63 -484.24L207.63 -292.48L5.76 -292.48L5.76 -484.24L207.63 -484.24Z" id="aHL5FArRS"></path><path d="M244.69 -486.19L106.69 -486.19L-31.31 -486.19L37.69 -549.14L106.69 -612.08L175.7 -549.14L244.69 -486.19Z" id="aqXozbfFO"></path><path d="M-470.79 335.59L-470.79 520.49L-663.86 520.49L-663.86 335.59L-470.79 335.59Z" id="ctwSLeCvF"></path><path d="M-435.35 333.71L-567.33 333.71L-699.31 333.71L-633.32 273.02L-567.33 212.33L-501.33 273.02L-435.35 333.71Z" id="a1Iu1M9Y0x"></path><path d="M-470.79 335.59L-470.79 520.49L-663.86 520.49L-663.86 335.59L-470.79 335.59Z" id="a26R5Dd7Ee"></path><path d="M-435.35 333.71L-567.33 333.71L-699.31 333.71L-633.32 273.02L-567.33 212.33L-501.33 273.02L-435.35 333.71Z" id="a6SKxBw7i"></path><path d="M524.96 -321.63L524.96 -129.87L323.09 -129.87L323.09 -321.63L524.96 -321.63Z" id="c9H7iBUiM"></path><path d="M562.02 -323.58L424.02 -323.58L286.02 -323.58L355.02 -386.52L424.02 -449.46L493.03 -386.52L562.02 -323.58Z" id="akJZJQ1pg"></path><path d="M524.96 -321.63L524.96 -129.87L323.09 -129.87L323.09 -321.63L524.96 -321.63Z" id="b11u7f45T"></path><path d="M562.02 -323.58L424.02 -323.58L286.02 -323.58L355.02 -386.52L424.02 -449.46L493.03 -386.52L562.02 -323.58Z" id="c24ks6eA5z"></path><path d="M233.54 130.62L233.54 315.52L40.47 315.52L40.47 130.62L233.54 130.62Z" id="d489sK5c3"></path><path d="M268.98 128.74L137 128.74L5.02 128.74L71.01 68.05L137 7.36L203 68.05L268.98 128.74Z" id="b2RaHQAte2"></path><path d="M233.54 130.62L233.54 315.52L40.47 315.52L40.47 130.62L233.54 130.62Z" id="bfJ5p3fET"></path><path d="M268.98 128.74L137 128.74L5.02 128.74L71.01 68.05L137 7.36L203 68.05L268.98 128.74Z" id="eDVlawKgD"></path></defs><g><g><g><g><g><filter id="shadow1012168" x="538.62" y="116.15" width="220.87" height="206.73" filterUnits="userSpaceOnUse" primitiveUnits="userSpaceOnUse"><feFlood></feFlood><feComposite in2="SourceAlpha" operator="in"></feComposite><feGaussianBlur stdDeviation="1"></feGaussianBlur><feOffset dx="1" dy="1" result="afterOffset"></feOffset><feFlood flood-color="#000000" flood-opacity="0.5"></feFlood><feComposite in2="afterOffset" operator="in"></feComposite><feMorphology operator="dilate" radius="1"></feMorphology><feComposite in2="SourceAlpha" operator="out"></feComposite></filter><path d="M749.5 125.15L749.5 312.87L547.62 312.87L547.62 125.15L749.5 125.15Z" id="a4G9gtUadp" fill="white" fill-opacity="1" filter="url(#shadow1012168)"></path></g><use xlink:href="#cltZO9URY" opacity="1" fill="#868591" fill-opacity="1"></use><g><use xlink:href="#cltZO9URY" opacity="1" fill-opacity="0" stroke="#000000" stroke-width="1" stroke-opacity="0"></use></g></g><g><g><filter id="shadow13166755" x="501.56" y="-9" width="295" height="142.24" filterUnits="userSpaceOnUse" primitiveUnits="userSpaceOnUse"><feFlood></feFlood><feComposite in2="SourceAlpha" operator="in"></feComposite><feGaussianBlur stdDeviation="1"></feGaussianBlur><feOffset dx="1" dy="1" result="afterOffset"></feOffset><feFlood flood-color="#000000" flood-opacity="0.5"></feFlood><feComposite in2="afterOffset" operator="in"></feComposite><feMorphology operator="dilate" radius="1"></feMorphology><feComposite in2="SourceAlpha" operator="out"></feComposite></filter><path d="M786.56 123.24L648.56 123.24L510.56 123.24L579.56 61.62L648.56 0L717.57 61.62L786.56 123.24Z" id="axo4zUrVD" fill="white" fill-opacity="1" filter="url(#shadow13166755)"></path></g><use xlink:href="#aHMT0gKnm" opacity="1" fill="#868591" fill-opacity="1"></use><g><use xlink:href="#aHMT0gKnm" opacity="1" fill-opacity="0" stroke="#000000" stroke-width="1" stroke-opacity="0"></use></g></g></g><g><g><g><filter id="shadow14133646" x="-409.57" y="-514.62" width="300.07" height="291.9" filterUnits="userSpaceOnUse" primitiveUnits="userSpaceOnUse"><feFlood></feFlood><feComposite in2="SourceAlpha" operator="in"></feComposite><feGaussianBlur stdDeviation="4.58"></feGaussianBlur><feOffset dx="1" dy="1" result="afterOffset"></feOffset><feFlood flood-color="#3627e7" flood-opacity="0.5"></feFlood><feComposite in2="afterOffset" operator="in"></feComposite><feMorphology operator="dilate" radius="5"></feMorphology><feComposite in2="SourceAlpha" operator="out"></feComposite></filter><path d="M-163.5 -461.62L-163.5 -276.72L-356.57 -276.72L-356.57 -461.62L-163.5 -461.62Z" id="aqagiAkeR" fill="white" fill-opacity="1" filter="url(#shadow14133646)"></path></g><use xlink:href="#caPFgXqU" opacity="1" fill="#ff7100" fill-opacity="1"></use><g><use xlink:href="#caPFgXqU" opacity="1" fill-opacity="0" stroke="#000000" stroke-width="1" stroke-opacity="0"></use></g></g><g><g><filter id="shadow7916997" x="-445.02" y="-637.88" width="370.96" height="228.38" filterUnits="userSpaceOnUse" primitiveUnits="userSpaceOnUse"><feFlood></feFlood><feComposite in2="SourceAlpha" operator="in"></feComposite><feGaussianBlur stdDeviation="4.58"></feGaussianBlur><feOffset dx="1" dy="1" result="afterOffset"></feOffset><feFlood flood-color="#3627e7" flood-opacity="0.5"></feFlood><feComposite in2="afterOffset" operator="in"></feComposite><feMorphology operator="dilate" radius="5"></feMorphology><feComposite in2="SourceAlpha" operator="out"></feComposite></filter><path d="M-128.06 -463.5L-260.04 -463.5L-392.02 -463.5L-326.03 -524.19L-260.04 -584.88L-194.04 -524.19L-128.06 -463.5Z" id="a3d7Xj79I" fill="white" fill-opacity="1" filter="url(#shadow7916997)"></path></g><use xlink:href="#a2fp8can0" opacity="1" fill="#ff7100" fill-opacity="1"></use><g><use xlink:href="#a2fp8can0" opacity="1" fill-opacity="0" stroke="#000000" stroke-width="1" stroke-opacity="0"></use></g></g><g><g><filter id="shadow6169983" x="-409.57" y="-514.62" width="300.07" height="291.9" filterUnits="userSpaceOnUse" primitiveUnits="userSpaceOnUse"><feFlood></feFlood><feComposite in2="SourceAlpha" operator="in"></feComposite><feGaussianBlur stdDeviation="4.58"></feGaussianBlur><feOffset dx="1" dy="1" result="afterOffset"></feOffset><feFlood flood-color="#3627e7" flood-opacity="0.5"></feFlood><feComposite in2="afterOffset" operator="in"></feComposite><feMorphology operator="dilate" radius="5"></feMorphology><feComposite in2="SourceAlpha" operator="out"></feComposite></filter><path d="M-163.5 -461.62L-163.5 -276.72L-356.57 -276.72L-356.57 -461.62L-163.5 -461.62Z" id="aPGw0mzYz" fill="white" fill-opacity="1" filter="url(#shadow6169983)"></path></g><use xlink:href="#c6cwfHLLW1" opacity="1" fill="#ff7100" fill-opacity="1"></use><g><use xlink:href="#c6cwfHLLW1" opacity="1" fill-opacity="0" stroke="#000000" stroke-width="1" stroke-opacity="0"></use></g></g><g><g><filter id="shadow6030527" x="-445.02" y="-637.88" width="370.96" height="228.38" filterUnits="userSpaceOnUse" primitiveUnits="userSpaceOnUse"><feFlood></feFlood><feComposite in2="SourceAlpha" operator="in"></feComposite><feGaussianBlur stdDeviation="4.58"></feGaussianBlur><feOffset dx="1" dy="1" result="afterOffset"></feOffset><feFlood flood-color="#3627e7" flood-opacity="0.5"></feFlood><feComposite in2="afterOffset" operator="in"></feComposite><feMorphology operator="dilate" radius="5"></feMorphology><feComposite in2="SourceAlpha" operator="out"></feComposite></filter><path d="M-128.06 -463.5L-260.04 -463.5L-392.02 -463.5L-326.03 -524.19L-260.04 -584.88L-194.04 -524.19L-128.06 -463.5Z" id="b1RagXjOmx" fill="white" fill-opacity="1" filter="url(#shadow6030527)"></path></g><use xlink:href="#aHOget9nM" opacity="1" fill="#ff7100" fill-opacity="1"></use><g><use xlink:href="#aHOget9nM" opacity="1" fill-opacity="0" stroke="#000000" stroke-width="1" stroke-opacity="0"></use></g></g></g><g><g><use xlink:href="#h8JO3FCnwy" opacity="1" fill="#050000" fill-opacity="1"></use><g><use xlink:href="#h8JO3FCnwy" opacity="1" fill-opacity="0" stroke="#000000" stroke-width="1" stroke-opacity="0"></use></g></g><g><use xlink:href="#c4oaOc02o3" opacity="1" fill="#050000" fill-opacity="1"></use><g><use xlink:href="#c4oaOc02o3" opacity="1" fill-opacity="0" stroke="#000000" stroke-width="1" stroke-opacity="0"></use></g></g><g><use xlink:href="#b26EcyFJPA" opacity="1" fill="#050000" fill-opacity="1"></use><g><use xlink:href="#b26EcyFJPA" opacity="1" fill-opacity="0" stroke="#000000" stroke-width="1" stroke-opacity="0"></use></g></g><g><use xlink:href="#a31ckKV4Jy" opacity="1" fill="#050000" fill-opacity="1"></use><g><use xlink:href="#a31ckKV4Jy" opacity="1" fill-opacity="0" stroke="#000000" stroke-width="1" stroke-opacity="0"></use></g></g></g><g><g><use xlink:href="#baqK0krau" opacity="1" fill="#ff7100" fill-opacity="1"></use><g><use xlink:href="#baqK0krau" opacity="1" fill-opacity="0" stroke="#000000" stroke-width="1" stroke-opacity="0"></use></g></g><g><use xlink:href="#b2sya2vSPA" opacity="1" fill="#ff7100" fill-opacity="1"></use><g><use xlink:href="#b2sya2vSPA" opacity="1" fill-opacity="0" stroke="#000000" stroke-width="1" stroke-opacity="0"></use></g></g><g><use xlink:href="#aHL5FArRS" opacity="1" fill="#ff7100" fill-opacity="1"></use><g><use xlink:href="#aHL5FArRS" opacity="1" fill-opacity="0" stroke="#000000" stroke-width="1" stroke-opacity="0"></use></g></g><g><use xlink:href="#aqXozbfFO" opacity="1" fill="#ff7100" fill-opacity="1"></use><g><use xlink:href="#aqXozbfFO" opacity="1" fill-opacity="0" stroke="#000000" stroke-width="1" stroke-opacity="0"></use></g></g></g><g><g><g><filter id="shadow11293530" x="-716.86" y="282.59" width="300.07" height="291.9" filterUnits="userSpaceOnUse" primitiveUnits="userSpaceOnUse"><feFlood></feFlood><feComposite in2="SourceAlpha" operator="in"></feComposite><feGaussianBlur stdDeviation="4.58"></feGaussianBlur><feOffset dx="1" dy="1" result="afterOffset"></feOffset><feFlood flood-color="#3627e7" flood-opacity="0.5"></feFlood><feComposite in2="afterOffset" operator="in"></feComposite><feMorphology operator="dilate" radius="5"></feMorphology><feComposite in2="SourceAlpha" operator="out"></feComposite></filter><path d="M-470.79 335.59L-470.79 520.49L-663.86 520.49L-663.86 335.59L-470.79 335.59Z" id="e1cS2oFFvS" fill="white" fill-opacity="1" filter="url(#shadow11293530)"></path></g><use xlink:href="#ctwSLeCvF" opacity="1" fill="#050000" fill-opacity="1"></use><g><use xlink:href="#ctwSLeCvF" opacity="1" fill-opacity="0" stroke="#000000" stroke-width="1" stroke-opacity="0"></use></g></g><g><g><filter id="shadow15052197" x="-752.31" y="159.33" width="370.96" height="228.38" filterUnits="userSpaceOnUse" primitiveUnits="userSpaceOnUse"><feFlood></feFlood><feComposite in2="SourceAlpha" operator="in"></feComposite><feGaussianBlur stdDeviation="4.58"></feGaussianBlur><feOffset dx="1" dy="1" result="afterOffset"></feOffset><feFlood flood-color="#3627e7" flood-opacity="0.5"></feFlood><feComposite in2="afterOffset" operator="in"></feComposite><feMorphology operator="dilate" radius="5"></feMorphology><feComposite in2="SourceAlpha" operator="out"></feComposite></filter><path d="M-435.35 333.71L-567.33 333.71L-699.31 333.71L-633.32 273.02L-567.33 212.33L-501.33 273.02L-435.35 333.71Z" id="d35DGu6Mji" fill="white" fill-opacity="1" filter="url(#shadow15052197)"></path></g><use xlink:href="#a1Iu1M9Y0x" opacity="1" fill="#050000" fill-opacity="1"></use><g><use xlink:href="#a1Iu1M9Y0x" opacity="1" fill-opacity="0" stroke="#000000" stroke-width="1" stroke-opacity="0"></use></g></g><g><g><filter id="shadow739460" x="-716.86" y="282.59" width="300.07" height="291.9" filterUnits="userSpaceOnUse" primitiveUnits="userSpaceOnUse"><feFlood></feFlood><feComposite in2="SourceAlpha" operator="in"></feComposite><feGaussianBlur stdDeviation="4.58"></feGaussianBlur><feOffset dx="1" dy="1" result="afterOffset"></feOffset><feFlood flood-color="#3627e7" flood-opacity="0.5"></feFlood><feComposite in2="afterOffset" operator="in"></feComposite><feMorphology operator="dilate" radius="5"></feMorphology><feComposite in2="SourceAlpha" operator="out"></feComposite></filter><path d="M-470.79 335.59L-470.79 520.49L-663.86 520.49L-663.86 335.59L-470.79 335.59Z" id="b8wmibk4B" fill="white" fill-opacity="1" filter="url(#shadow739460)"></path></g><use xlink:href="#a26R5Dd7Ee" opacity="1" fill="#050000" fill-opacity="1"></use><g><use xlink:href="#a26R5Dd7Ee" opacity="1" fill-opacity="0" stroke="#000000" stroke-width="1" stroke-opacity="0"></use></g></g><g><g><filter id="shadow2709463" x="-752.31" y="159.33" width="370.96" height="228.38" filterUnits="userSpaceOnUse" primitiveUnits="userSpaceOnUse"><feFlood></feFlood><feComposite in2="SourceAlpha" operator="in"></feComposite><feGaussianBlur stdDeviation="4.58"></feGaussianBlur><feOffset dx="1" dy="1" result="afterOffset"></feOffset><feFlood flood-color="#3627e7" flood-opacity="0.5"></feFlood><feComposite in2="afterOffset" operator="in"></feComposite><feMorphology operator="dilate" radius="5"></feMorphology><feComposite in2="SourceAlpha" operator="out"></feComposite></filter><path d="M-435.35 333.71L-567.33 333.71L-699.31 333.71L-633.32 273.02L-567.33 212.33L-501.33 273.02L-435.35 333.71Z" id="b2vgmYptyr" fill="white" fill-opacity="1" filter="url(#shadow2709463)"></path></g><use xlink:href="#a6SKxBw7i" opacity="1" fill="#050000" fill-opacity="1"></use><g><use xlink:href="#a6SKxBw7i" opacity="1" fill-opacity="0" stroke="#000000" stroke-width="1" stroke-opacity="0"></use></g></g></g><g><g><use xlink:href="#c9H7iBUiM" opacity="1" fill="#f22003" fill-opacity="1"></use><g><use xlink:href="#c9H7iBUiM" opacity="1" fill-opacity="0" stroke="#000000" stroke-width="1" stroke-opacity="0"></use></g></g><g><use xlink:href="#akJZJQ1pg" opacity="1" fill="#f22003" fill-opacity="1"></use><g><use xlink:href="#akJZJQ1pg" opacity="1" fill-opacity="0" stroke="#000000" stroke-width="1" stroke-opacity="0"></use></g></g><g><use xlink:href="#b11u7f45T" opacity="1" fill="#f22003" fill-opacity="1"></use><g><use xlink:href="#b11u7f45T" opacity="1" fill-opacity="0" stroke="#000000" stroke-width="1" stroke-opacity="0"></use></g></g><g><use xlink:href="#c24ks6eA5z" opacity="1" fill="#f22003" fill-opacity="1"></use><g><use xlink:href="#c24ks6eA5z" opacity="1" fill-opacity="0" stroke="#000000" stroke-width="1" stroke-opacity="0"></use></g></g></g><g><g><g><filter id="shadow14142640" x="-12.53" y="77.62" width="300.07" height="291.9" filterUnits="userSpaceOnUse" primitiveUnits="userSpaceOnUse"><feFlood></feFlood><feComposite in2="SourceAlpha" operator="in"></feComposite><feGaussianBlur stdDeviation="4.58"></feGaussianBlur><feOffset dx="1" dy="1" result="afterOffset"></feOffset><feFlood flood-color="#3627e7" flood-opacity="0.5"></feFlood><feComposite in2="afterOffset" operator="in"></feComposite><feMorphology operator="dilate" radius="5"></feMorphology><feComposite in2="SourceAlpha" operator="out"></feComposite></filter><path d="M233.54 130.62L233.54 315.52L40.47 315.52L40.47 130.62L233.54 130.62Z" id="d4ZSMgIuF" fill="white" fill-opacity="1" filter="url(#shadow14142640)"></path></g><use xlink:href="#d489sK5c3" opacity="1" fill="#f22003" fill-opacity="1"></use><g><use xlink:href="#d489sK5c3" opacity="1" fill-opacity="0" stroke="#000000" stroke-width="1" stroke-opacity="0"></use></g></g><g><g><filter id="shadow4556208" x="-47.98" y="-45.64" width="370.96" height="228.38" filterUnits="userSpaceOnUse" primitiveUnits="userSpaceOnUse"><feFlood></feFlood><feComposite in2="SourceAlpha" operator="in"></feComposite><feGaussianBlur stdDeviation="4.58"></feGaussianBlur><feOffset dx="1" dy="1" result="afterOffset"></feOffset><feFlood flood-color="#3627e7" flood-opacity="0.5"></feFlood><feComposite in2="afterOffset" operator="in"></feComposite><feMorphology operator="dilate" radius="5"></feMorphology><feComposite in2="SourceAlpha" operator="out"></feComposite></filter><path d="M268.98 128.74L137 128.74L5.02 128.74L71.01 68.05L137 7.36L203 68.05L268.98 128.74Z" id="g3C2EKUIg7" fill="white" fill-opacity="1" filter="url(#shadow4556208)"></path></g><use xlink:href="#b2RaHQAte2" opacity="1" fill="#f22003" fill-opacity="1"></use><g><use xlink:href="#b2RaHQAte2" opacity="1" fill-opacity="0" stroke="#000000" stroke-width="1" stroke-opacity="0"></use></g></g><g><g><filter id="shadow15813842" x="-12.53" y="77.62" width="300.07" height="291.9" filterUnits="userSpaceOnUse" primitiveUnits="userSpaceOnUse"><feFlood></feFlood><feComposite in2="SourceAlpha" operator="in"></feComposite><feGaussianBlur stdDeviation="4.58"></feGaussianBlur><feOffset dx="1" dy="1" result="afterOffset"></feOffset><feFlood flood-color="#3627e7" flood-opacity="0.5"></feFlood><feComposite in2="afterOffset" operator="in"></feComposite><feMorphology operator="dilate" radius="5"></feMorphology><feComposite in2="SourceAlpha" operator="out"></feComposite></filter><path d="M233.54 130.62L233.54 315.52L40.47 315.52L40.47 130.62L233.54 130.62Z" id="bPlDFh694" fill="white" fill-opacity="1" filter="url(#shadow15813842)"></path></g><use xlink:href="#bfJ5p3fET" opacity="1" fill="#f22003" fill-opacity="1"></use><g><use xlink:href="#bfJ5p3fET" opacity="1" fill-opacity="0" stroke="#000000" stroke-width="1" stroke-opacity="0"></use></g></g><g><g><filter id="shadow16351093" x="-47.98" y="-45.64" width="370.96" height="228.38" filterUnits="userSpaceOnUse" primitiveUnits="userSpaceOnUse"><feFlood></feFlood><feComposite in2="SourceAlpha" operator="in"></feComposite><feGaussianBlur stdDeviation="4.58"></feGaussianBlur><feOffset dx="1" dy="1" result="afterOffset"></feOffset><feFlood flood-color="#3627e7" flood-opacity="0.5"></feFlood><feComposite in2="afterOffset" operator="in"></feComposite><feMorphology operator="dilate" radius="5"></feMorphology><feComposite in2="SourceAlpha" operator="out"></feComposite></filter><path d="M268.98 128.74L137 128.74L5.02 128.74L71.01 68.05L137 7.36L203 68.05L268.98 128.74Z" id="bRFCLEE7" fill="white" fill-opacity="1" filter="url(#shadow16351093)"></path></g><use xlink:href="#eDVlawKgD" opacity="1" fill="#f22003" fill-opacity="1"></use><g><use xlink:href="#eDVlawKgD" opacity="1" fill-opacity="0" stroke="#000000" stroke-width="1" stroke-opacity="0"></use></g></g></g></g></g></svg>