<?xml version="1.0" encoding="UTF-8" standalone="no"?>
<!DOCTYPE svg PUBLIC "-//W3C//DTD SVG 1.1//EN" "http://www.w3.org/Graphics/SVG/1.1/DTD/svg11.dtd">
<svg version="1.1" xmlns="http://www.w3.org/2000/svg" xmlns:xlink="http://www.w3.org/1999/xlink" preserveAspectRatio="xMidYMid meet" viewBox="0 0 276 325" width="276" height="325"><defs><path d="M749.5 125.15L749.5 312.87L547.62 312.87L547.62 125.15L749.5 125.15Z" id="b1C4tibXm"></path><path d="M786.56 123.24L648.56 123.24L510.56 123.24L579.56 61.62L648.56 0L717.57 61.62L786.56 123.24Z" id="bAmQzzf3L"></path><path d="M-163.5 -461.62L-163.5 -276.72L-356.57 -276.72L-356.57 -461.62L-163.5 -461.62Z" id="a1Xxi3uB7j"></path><path d="M-128.06 -463.5L-260.04 -463.5L-392.02 -463.5L-326.03 -524.19L-260.04 -584.88L-194.04 -524.19L-128.06 -463.5Z" id="i8GJZHWFCG"></path><path d="M-163.5 -461.62L-163.5 -276.72L-356.57 -276.72L-356.57 -461.62L-163.5 -461.62Z" id="e23GyZRilO"></path><path d="M-128.06 -463.5L-260.04 -463.5L-392.02 -463.5L-326.03 -524.19L-260.04 -584.88L-194.04 -524.19L-128.06 -463.5Z" id="a2pV27YfJd"></path><path d="M-504.07 -20.55L-504.07 171.21L-705.94 171.21L-705.94 -20.55L-504.07 -20.55Z" id="d2WQnhqAvh"></path><path d="M-467.01 -22.5L-605.01 -22.5L-743.01 -22.5L-674.01 -85.44L-605.01 -148.39L-536 -85.44L-467.01 -22.5Z" id="a1awWPaLJ6"></path><path d="M-504.07 -20.55L-504.07 171.21L-705.94 171.21L-705.94 -20.55L-504.07 -20.55Z" id="aaNMf9h7M"></path><path d="M-467.01 -22.5L-605.01 -22.5L-743.01 -22.5L-674.01 -85.44L-605.01 -148.39L-536 -85.44L-467.01 -22.5Z" id="ca7UmJwRy"></path><path d="M207.63 -484.24L207.63 -292.48L5.76 -292.48L5.76 -484.24L207.63 -484.24Z" id="abrXAXmmz"></path><path d="M244.69 -486.19L106.69 -486.19L-31.31 -486.19L37.69 -549.14L106.69 -612.08L175.7 -549.14L244.69 -486.19Z" id="d7RFMyH3xJ"></path><path d="M207.63 -484.24L207.63 -292.48L5.76 -292.48L5.76 -484.24L207.63 -484.24Z" id="b3REN3lpDE"></path><path d="M244.69 -486.19L106.69 -486.19L-31.31 -486.19L37.69 -549.14L106.69 -612.08L175.7 -549.14L244.69 -486.19Z" id="a23PDGJoST"></path><path d="M-470.79 335.59L-470.79 520.49L-663.86 520.49L-663.86 335.59L-470.79 335.59Z" id="b1a4s5z0XZ"></path><path d="M-435.35 333.71L-567.33 333.71L-699.31 333.71L-633.32 273.02L-567.33 212.33L-501.33 273.02L-435.35 333.71Z" id="e1NAzjm6S2"></path><path d="M-470.79 335.59L-470.79 520.49L-663.86 520.49L-663.86 335.59L-470.79 335.59Z" id="bR452iGZ"></path><path d="M-435.35 333.71L-567.33 333.71L-699.31 333.71L-633.32 273.02L-567.33 212.33L-501.33 273.02L-435.35 333.71Z" id="a4MTULCPhr"></path><path d="M524.96 -321.63L524.96 -129.87L323.09 -129.87L323.09 -321.63L524.96 -321.63Z" id="gqJv9bENj"></path><path d="M562.02 -323.58L424.02 -323.58L286.02 -323.58L355.02 -386.52L424.02 -449.46L493.03 -386.52L562.02 -323.58Z" id="c6nzKEGu7i"></path><path d="M524.96 -321.63L524.96 -129.87L323.09 -129.87L323.09 -321.63L524.96 -321.63Z" id="a1tRNan2S"></path><path d="M562.02 -323.58L424.02 -323.58L286.02 -323.58L355.02 -386.52L424.02 -449.46L493.03 -386.52L562.02 -323.58Z" id="a36izvOdd5"></path><path d="M240.56 125.62L240.56 310.52L47.49 310.52L47.49 125.62L240.56 125.62Z" id="b2J58Pw3Fh"></path><path d="M276 123.74L144.02 123.74L12.04 123.74L78.03 63.05L144.02 2.36L210.02 63.05L276 123.74Z" id="e15uT2O4i"></path><path d="M240.56 125.62L240.56 310.52L47.49 310.52L47.49 125.62L240.56 125.62Z" id="bTJUjUhKA"></path><path d="M276 123.74L144.02 123.74L12.04 123.74L78.03 63.05L144.02 2.36L210.02 63.05L276 123.74Z" id="bGBkJKD66"></path><path d="M570.75 502.4L570.75 687.3L377.68 687.3L377.68 502.4L570.75 502.4Z" id="jaajcwjCJ"></path><path d="M606.19 500.52L474.21 500.52L342.23 500.52L408.22 439.83L474.21 379.14L540.21 439.83L606.19 500.52Z" id="a2jbNAuICL"></path><path d="M570.75 502.4L570.75 687.3L377.68 687.3L377.68 502.4L570.75 502.4Z" id="c4Uy2ZHwE0"></path><path d="M606.19 500.52L474.21 500.52L342.23 500.52L408.22 439.83L474.21 379.14L540.21 439.83L606.19 500.52Z" id="aOgQVYVAM"></path></defs><g><g><g><g><g><filter id="shadow11449308" x="538.62" y="116.15" width="220.87" height="206.73" filterUnits="userSpaceOnUse" primitiveUnits="userSpaceOnUse"><feFlood></feFlood><feComposite in2="SourceAlpha" operator="in"></feComposite><feGaussianBlur stdDeviation="1"></feGaussianBlur><feOffset dx="1" dy="1" result="afterOffset"></feOffset><feFlood flood-color="#000000" flood-opacity="0.5"></feFlood><feComposite in2="afterOffset" operator="in"></feComposite><feMorphology operator="dilate" radius="1"></feMorphology><feComposite in2="SourceAlpha" operator="out"></feComposite></filter><path d="M749.5 125.15L749.5 312.87L547.62 312.87L547.62 125.15L749.5 125.15Z" id="a8XdpwQFDz" fill="white" fill-opacity="1" filter="url(#shadow11449308)"></path></g><use xlink:href="#b1C4tibXm" opacity="1" fill="#868591" fill-opacity="1"></use><g><use xlink:href="#b1C4tibXm" opacity="1" fill-opacity="0" stroke="#000000" stroke-width="1" stroke-opacity="0"></use></g></g><g><g><filter id="shadow5921074" x="501.56" y="-9" width="295" height="142.24" filterUnits="userSpaceOnUse" primitiveUnits="userSpaceOnUse"><feFlood></feFlood><feComposite in2="SourceAlpha" operator="in"></feComposite><feGaussianBlur stdDeviation="1"></feGaussianBlur><feOffset dx="1" dy="1" result="afterOffset"></feOffset><feFlood flood-color="#000000" flood-opacity="0.5"></feFlood><feComposite in2="afterOffset" operator="in"></feComposite><feMorphology operator="dilate" radius="1"></feMorphology><feComposite in2="SourceAlpha" operator="out"></feComposite></filter><path d="M786.56 123.24L648.56 123.24L510.56 123.24L579.56 61.62L648.56 0L717.57 61.62L786.56 123.24Z" id="az7L7y2rL" fill="white" fill-opacity="1" filter="url(#shadow5921074)"></path></g><use xlink:href="#bAmQzzf3L" opacity="1" fill="#868591" fill-opacity="1"></use><g><use xlink:href="#bAmQzzf3L" opacity="1" fill-opacity="0" stroke="#000000" stroke-width="1" stroke-opacity="0"></use></g></g></g><g><g><g><filter id="shadow16508659" x="-409.57" y="-514.62" width="300.07" height="291.9" filterUnits="userSpaceOnUse" primitiveUnits="userSpaceOnUse"><feFlood></feFlood><feComposite in2="SourceAlpha" operator="in"></feComposite><feGaussianBlur stdDeviation="4.58"></feGaussianBlur><feOffset dx="1" dy="1" result="afterOffset"></feOffset><feFlood flood-color="#3627e7" flood-opacity="0.5"></feFlood><feComposite in2="afterOffset" operator="in"></feComposite><feMorphology operator="dilate" radius="5"></feMorphology><feComposite in2="SourceAlpha" operator="out"></feComposite></filter><path d="M-163.5 -461.62L-163.5 -276.72L-356.57 -276.72L-356.57 -461.62L-163.5 -461.62Z" id="coNGEwLMQ" fill="white" fill-opacity="1" filter="url(#shadow16508659)"></path></g><use xlink:href="#a1Xxi3uB7j" opacity="1" fill="#ff7100" fill-opacity="1"></use><g><use xlink:href="#a1Xxi3uB7j" opacity="1" fill-opacity="0" stroke="#000000" stroke-width="1" stroke-opacity="0"></use></g></g><g><g><filter id="shadow2662607" x="-445.02" y="-637.88" width="370.96" height="228.38" filterUnits="userSpaceOnUse" primitiveUnits="userSpaceOnUse"><feFlood></feFlood><feComposite in2="SourceAlpha" operator="in"></feComposite><feGaussianBlur stdDeviation="4.58"></feGaussianBlur><feOffset dx="1" dy="1" result="afterOffset"></feOffset><feFlood flood-color="#3627e7" flood-opacity="0.5"></feFlood><feComposite in2="afterOffset" operator="in"></feComposite><feMorphology operator="dilate" radius="5"></feMorphology><feComposite in2="SourceAlpha" operator="out"></feComposite></filter><path d="M-128.06 -463.5L-260.04 -463.5L-392.02 -463.5L-326.03 -524.19L-260.04 -584.88L-194.04 -524.19L-128.06 -463.5Z" id="f2bul2qBoC" fill="white" fill-opacity="1" filter="url(#shadow2662607)"></path></g><use xlink:href="#i8GJZHWFCG" opacity="1" fill="#ff7100" fill-opacity="1"></use><g><use xlink:href="#i8GJZHWFCG" opacity="1" fill-opacity="0" stroke="#000000" stroke-width="1" stroke-opacity="0"></use></g></g><g><g><filter id="shadow843322" x="-409.57" y="-514.62" width="300.07" height="291.9" filterUnits="userSpaceOnUse" primitiveUnits="userSpaceOnUse"><feFlood></feFlood><feComposite in2="SourceAlpha" operator="in"></feComposite><feGaussianBlur stdDeviation="4.58"></feGaussianBlur><feOffset dx="1" dy="1" result="afterOffset"></feOffset><feFlood flood-color="#3627e7" flood-opacity="0.5"></feFlood><feComposite in2="afterOffset" operator="in"></feComposite><feMorphology operator="dilate" radius="5"></feMorphology><feComposite in2="SourceAlpha" operator="out"></feComposite></filter><path d="M-163.5 -461.62L-163.5 -276.72L-356.57 -276.72L-356.57 -461.62L-163.5 -461.62Z" id="ajckvetr7" fill="white" fill-opacity="1" filter="url(#shadow843322)"></path></g><use xlink:href="#e23GyZRilO" opacity="1" fill="#ff7100" fill-opacity="1"></use><g><use xlink:href="#e23GyZRilO" opacity="1" fill-opacity="0" stroke="#000000" stroke-width="1" stroke-opacity="0"></use></g></g><g><g><filter id="shadow6000128" x="-445.02" y="-637.88" width="370.96" height="228.38" filterUnits="userSpaceOnUse" primitiveUnits="userSpaceOnUse"><feFlood></feFlood><feComposite in2="SourceAlpha" operator="in"></feComposite><feGaussianBlur stdDeviation="4.58"></feGaussianBlur><feOffset dx="1" dy="1" result="afterOffset"></feOffset><feFlood flood-color="#3627e7" flood-opacity="0.5"></feFlood><feComposite in2="afterOffset" operator="in"></feComposite><feMorphology operator="dilate" radius="5"></feMorphology><feComposite in2="SourceAlpha" operator="out"></feComposite></filter><path d="M-128.06 -463.5L-260.04 -463.5L-392.02 -463.5L-326.03 -524.19L-260.04 -584.88L-194.04 -524.19L-128.06 -463.5Z" id="b9g7JdmFs" fill="white" fill-opacity="1" filter="url(#shadow6000128)"></path></g><use xlink:href="#a2pV27YfJd" opacity="1" fill="#ff7100" fill-opacity="1"></use><g><use xlink:href="#a2pV27YfJd" opacity="1" fill-opacity="0" stroke="#000000" stroke-width="1" stroke-opacity="0"></use></g></g></g><g><g><use xlink:href="#d2WQnhqAvh" opacity="1" fill="#050000" fill-opacity="1"></use><g><use xlink:href="#d2WQnhqAvh" opacity="1" fill-opacity="0" stroke="#000000" stroke-width="1" stroke-opacity="0"></use></g></g><g><use xlink:href="#a1awWPaLJ6" opacity="1" fill="#050000" fill-opacity="1"></use><g><use xlink:href="#a1awWPaLJ6" opacity="1" fill-opacity="0" stroke="#000000" stroke-width="1" stroke-opacity="0"></use></g></g><g><use xlink:href="#aaNMf9h7M" opacity="1" fill="#050000" fill-opacity="1"></use><g><use xlink:href="#aaNMf9h7M" opacity="1" fill-opacity="0" stroke="#000000" stroke-width="1" stroke-opacity="0"></use></g></g><g><use xlink:href="#ca7UmJwRy" opacity="1" fill="#050000" fill-opacity="1"></use><g><use xlink:href="#ca7UmJwRy" opacity="1" fill-opacity="0" stroke="#000000" stroke-width="1" stroke-opacity="0"></use></g></g></g><g><g><use xlink:href="#abrXAXmmz" opacity="1" fill="#ff7100" fill-opacity="1"></use><g><use xlink:href="#abrXAXmmz" opacity="1" fill-opacity="0" stroke="#000000" stroke-width="1" stroke-opacity="0"></use></g></g><g><use xlink:href="#d7RFMyH3xJ" opacity="1" fill="#ff7100" fill-opacity="1"></use><g><use xlink:href="#d7RFMyH3xJ" opacity="1" fill-opacity="0" stroke="#000000" stroke-width="1" stroke-opacity="0"></use></g></g><g><use xlink:href="#b3REN3lpDE" opacity="1" fill="#ff7100" fill-opacity="1"></use><g><use xlink:href="#b3REN3lpDE" opacity="1" fill-opacity="0" stroke="#000000" stroke-width="1" stroke-opacity="0"></use></g></g><g><use xlink:href="#a23PDGJoST" opacity="1" fill="#ff7100" fill-opacity="1"></use><g><use xlink:href="#a23PDGJoST" opacity="1" fill-opacity="0" stroke="#000000" stroke-width="1" stroke-opacity="0"></use></g></g></g><g><g><g><filter id="shadow13627740" x="-716.86" y="282.59" width="300.07" height="291.9" filterUnits="userSpaceOnUse" primitiveUnits="userSpaceOnUse"><feFlood></feFlood><feComposite in2="SourceAlpha" operator="in"></feComposite><feGaussianBlur stdDeviation="4.58"></feGaussianBlur><feOffset dx="1" dy="1" result="afterOffset"></feOffset><feFlood flood-color="#3627e7" flood-opacity="0.5"></feFlood><feComposite in2="afterOffset" operator="in"></feComposite><feMorphology operator="dilate" radius="5"></feMorphology><feComposite in2="SourceAlpha" operator="out"></feComposite></filter><path d="M-470.79 335.59L-470.79 520.49L-663.86 520.49L-663.86 335.59L-470.79 335.59Z" id="a25HXaeJWT" fill="white" fill-opacity="1" filter="url(#shadow13627740)"></path></g><use xlink:href="#b1a4s5z0XZ" opacity="1" fill="#050000" fill-opacity="1"></use><g><use xlink:href="#b1a4s5z0XZ" opacity="1" fill-opacity="0" stroke="#000000" stroke-width="1" stroke-opacity="0"></use></g></g><g><g><filter id="shadow13046353" x="-752.31" y="159.33" width="370.96" height="228.38" filterUnits="userSpaceOnUse" primitiveUnits="userSpaceOnUse"><feFlood></feFlood><feComposite in2="SourceAlpha" operator="in"></feComposite><feGaussianBlur stdDeviation="4.58"></feGaussianBlur><feOffset dx="1" dy="1" result="afterOffset"></feOffset><feFlood flood-color="#3627e7" flood-opacity="0.5"></feFlood><feComposite in2="afterOffset" operator="in"></feComposite><feMorphology operator="dilate" radius="5"></feMorphology><feComposite in2="SourceAlpha" operator="out"></feComposite></filter><path d="M-435.35 333.71L-567.33 333.71L-699.31 333.71L-633.32 273.02L-567.33 212.33L-501.33 273.02L-435.35 333.71Z" id="b2laQ21VLX" fill="white" fill-opacity="1" filter="url(#shadow13046353)"></path></g><use xlink:href="#e1NAzjm6S2" opacity="1" fill="#050000" fill-opacity="1"></use><g><use xlink:href="#e1NAzjm6S2" opacity="1" fill-opacity="0" stroke="#000000" stroke-width="1" stroke-opacity="0"></use></g></g><g><g><filter id="shadow13463928" x="-716.86" y="282.59" width="300.07" height="291.9" filterUnits="userSpaceOnUse" primitiveUnits="userSpaceOnUse"><feFlood></feFlood><feComposite in2="SourceAlpha" operator="in"></feComposite><feGaussianBlur stdDeviation="4.58"></feGaussianBlur><feOffset dx="1" dy="1" result="afterOffset"></feOffset><feFlood flood-color="#3627e7" flood-opacity="0.5"></feFlood><feComposite in2="afterOffset" operator="in"></feComposite><feMorphology operator="dilate" radius="5"></feMorphology><feComposite in2="SourceAlpha" operator="out"></feComposite></filter><path d="M-470.79 335.59L-470.79 520.49L-663.86 520.49L-663.86 335.59L-470.79 335.59Z" id="c19qAaj7BB" fill="white" fill-opacity="1" filter="url(#shadow13463928)"></path></g><use xlink:href="#bR452iGZ" opacity="1" fill="#050000" fill-opacity="1"></use><g><use xlink:href="#bR452iGZ" opacity="1" fill-opacity="0" stroke="#000000" stroke-width="1" stroke-opacity="0"></use></g></g><g><g><filter id="shadow5152737" x="-752.31" y="159.33" width="370.96" height="228.38" filterUnits="userSpaceOnUse" primitiveUnits="userSpaceOnUse"><feFlood></feFlood><feComposite in2="SourceAlpha" operator="in"></feComposite><feGaussianBlur stdDeviation="4.58"></feGaussianBlur><feOffset dx="1" dy="1" result="afterOffset"></feOffset><feFlood flood-color="#3627e7" flood-opacity="0.5"></feFlood><feComposite in2="afterOffset" operator="in"></feComposite><feMorphology operator="dilate" radius="5"></feMorphology><feComposite in2="SourceAlpha" operator="out"></feComposite></filter><path d="M-435.35 333.71L-567.33 333.71L-699.31 333.71L-633.32 273.02L-567.33 212.33L-501.33 273.02L-435.35 333.71Z" id="bdZ6uZ2XB" fill="white" fill-opacity="1" filter="url(#shadow5152737)"></path></g><use xlink:href="#a4MTULCPhr" opacity="1" fill="#050000" fill-opacity="1"></use><g><use xlink:href="#a4MTULCPhr" opacity="1" fill-opacity="0" stroke="#000000" stroke-width="1" stroke-opacity="0"></use></g></g></g><g><g><use xlink:href="#gqJv9bENj" opacity="1" fill="#f22003" fill-opacity="1"></use><g><use xlink:href="#gqJv9bENj" opacity="1" fill-opacity="0" stroke="#000000" stroke-width="1" stroke-opacity="0"></use></g></g><g><use xlink:href="#c6nzKEGu7i" opacity="1" fill="#f22003" fill-opacity="1"></use><g><use xlink:href="#c6nzKEGu7i" opacity="1" fill-opacity="0" stroke="#000000" stroke-width="1" stroke-opacity="0"></use></g></g><g><use xlink:href="#a1tRNan2S" opacity="1" fill="#f22003" fill-opacity="1"></use><g><use xlink:href="#a1tRNan2S" opacity="1" fill-opacity="0" stroke="#000000" stroke-width="1" stroke-opacity="0"></use></g></g><g><use xlink:href="#a36izvOdd5" opacity="1" fill="#f22003" fill-opacity="1"></use><g><use xlink:href="#a36izvOdd5" opacity="1" fill-opacity="0" stroke="#000000" stroke-width="1" stroke-opacity="0"></use></g></g></g><g><g><g><filter id="shadow4212713" x="-5.51" y="72.62" width="300.07" height="291.9" filterUnits="userSpaceOnUse" primitiveUnits="userSpaceOnUse"><feFlood></feFlood><feComposite in2="SourceAlpha" operator="in"></feComposite><feGaussianBlur stdDeviation="4.58"></feGaussianBlur><feOffset dx="1" dy="1" result="afterOffset"></feOffset><feFlood flood-color="#3627e7" flood-opacity="0.5"></feFlood><feComposite in2="afterOffset" operator="in"></feComposite><feMorphology operator="dilate" radius="5"></feMorphology><feComposite in2="SourceAlpha" operator="out"></feComposite></filter><path d="M240.56 125.62L240.56 310.52L47.49 310.52L47.49 125.62L240.56 125.62Z" id="bp5iiiTxY" fill="white" fill-opacity="1" filter="url(#shadow4212713)"></path></g><use xlink:href="#b2J58Pw3Fh" opacity="1" fill="#868591" fill-opacity="1"></use><g><use xlink:href="#b2J58Pw3Fh" opacity="1" fill-opacity="0" stroke="#000000" stroke-width="1" stroke-opacity="0"></use></g></g><g><g><filter id="shadow9277033" x="-40.96" y="-50.64" width="370.96" height="228.38" filterUnits="userSpaceOnUse" primitiveUnits="userSpaceOnUse"><feFlood></feFlood><feComposite in2="SourceAlpha" operator="in"></feComposite><feGaussianBlur stdDeviation="4.58"></feGaussianBlur><feOffset dx="1" dy="1" result="afterOffset"></feOffset><feFlood flood-color="#3627e7" flood-opacity="0.5"></feFlood><feComposite in2="afterOffset" operator="in"></feComposite><feMorphology operator="dilate" radius="5"></feMorphology><feComposite in2="SourceAlpha" operator="out"></feComposite></filter><path d="M276 123.74L144.02 123.74L12.04 123.74L78.03 63.05L144.02 2.36L210.02 63.05L276 123.74Z" id="d7UDQUhPOE" fill="white" fill-opacity="1" filter="url(#shadow9277033)"></path></g><use xlink:href="#e15uT2O4i" opacity="1" fill="#868591" fill-opacity="1"></use><g><use xlink:href="#e15uT2O4i" opacity="1" fill-opacity="0" stroke="#000000" stroke-width="1" stroke-opacity="0"></use></g></g><g><g><filter id="shadow4960321" x="-5.51" y="72.62" width="300.07" height="291.9" filterUnits="userSpaceOnUse" primitiveUnits="userSpaceOnUse"><feFlood></feFlood><feComposite in2="SourceAlpha" operator="in"></feComposite><feGaussianBlur stdDeviation="4.58"></feGaussianBlur><feOffset dx="1" dy="1" result="afterOffset"></feOffset><feFlood flood-color="#3627e7" flood-opacity="0.5"></feFlood><feComposite in2="afterOffset" operator="in"></feComposite><feMorphology operator="dilate" radius="5"></feMorphology><feComposite in2="SourceAlpha" operator="out"></feComposite></filter><path d="M240.56 125.62L240.56 310.52L47.49 310.52L47.49 125.62L240.56 125.62Z" id="c171TS6hZ9" fill="white" fill-opacity="1" filter="url(#shadow4960321)"></path></g><use xlink:href="#bTJUjUhKA" opacity="1" fill="#868591" fill-opacity="1"></use><g><use xlink:href="#bTJUjUhKA" opacity="1" fill-opacity="0" stroke="#000000" stroke-width="1" stroke-opacity="0"></use></g></g><g><g><filter id="shadow3936189" x="-40.96" y="-50.64" width="370.96" height="228.38" filterUnits="userSpaceOnUse" primitiveUnits="userSpaceOnUse"><feFlood></feFlood><feComposite in2="SourceAlpha" operator="in"></feComposite><feGaussianBlur stdDeviation="4.58"></feGaussianBlur><feOffset dx="1" dy="1" result="afterOffset"></feOffset><feFlood flood-color="#3627e7" flood-opacity="0.5"></feFlood><feComposite in2="afterOffset" operator="in"></feComposite><feMorphology operator="dilate" radius="5"></feMorphology><feComposite in2="SourceAlpha" operator="out"></feComposite></filter><path d="M276 123.74L144.02 123.74L12.04 123.74L78.03 63.05L144.02 2.36L210.02 63.05L276 123.74Z" id="a2soNvoWfa" fill="white" fill-opacity="1" filter="url(#shadow3936189)"></path></g><use xlink:href="#bGBkJKD66" opacity="1" fill="#868591" fill-opacity="1"></use><g><use xlink:href="#bGBkJKD66" opacity="1" fill-opacity="0" stroke="#000000" stroke-width="1" stroke-opacity="0"></use></g></g></g><g><g><g><filter id="shadow116105" x="324.68" y="449.4" width="300.07" height="291.9" filterUnits="userSpaceOnUse" primitiveUnits="userSpaceOnUse"><feFlood></feFlood><feComposite in2="SourceAlpha" operator="in"></feComposite><feGaussianBlur stdDeviation="4.58"></feGaussianBlur><feOffset dx="1" dy="1" result="afterOffset"></feOffset><feFlood flood-color="#3627e7" flood-opacity="0.5"></feFlood><feComposite in2="afterOffset" operator="in"></feComposite><feMorphology operator="dilate" radius="5"></feMorphology><feComposite in2="SourceAlpha" operator="out"></feComposite></filter><path d="M570.75 502.4L570.75 687.3L377.68 687.3L377.68 502.4L570.75 502.4Z" id="bbTly7IhM" fill="white" fill-opacity="1" filter="url(#shadow116105)"></path></g><use xlink:href="#jaajcwjCJ" opacity="1" fill="#f22003" fill-opacity="1"></use><g><use xlink:href="#jaajcwjCJ" opacity="1" fill-opacity="0" stroke="#000000" stroke-width="1" stroke-opacity="0"></use></g></g><g><g><filter id="shadow13852661" x="289.23" y="326.14" width="370.96" height="228.38" filterUnits="userSpaceOnUse" primitiveUnits="userSpaceOnUse"><feFlood></feFlood><feComposite in2="SourceAlpha" operator="in"></feComposite><feGaussianBlur stdDeviation="4.58"></feGaussianBlur><feOffset dx="1" dy="1" result="afterOffset"></feOffset><feFlood flood-color="#3627e7" flood-opacity="0.5"></feFlood><feComposite in2="afterOffset" operator="in"></feComposite><feMorphology operator="dilate" radius="5"></feMorphology><feComposite in2="SourceAlpha" operator="out"></feComposite></filter><path d="M606.19 500.52L474.21 500.52L342.23 500.52L408.22 439.83L474.21 379.14L540.21 439.83L606.19 500.52Z" id="c1VEsdoIt7" fill="white" fill-opacity="1" filter="url(#shadow13852661)"></path></g><use xlink:href="#a2jbNAuICL" opacity="1" fill="#f22003" fill-opacity="1"></use><g><use xlink:href="#a2jbNAuICL" opacity="1" fill-opacity="0" stroke="#000000" stroke-width="1" stroke-opacity="0"></use></g></g><g><g><filter id="shadow9665823" x="324.68" y="449.4" width="300.07" height="291.9" filterUnits="userSpaceOnUse" primitiveUnits="userSpaceOnUse"><feFlood></feFlood><feComposite in2="SourceAlpha" operator="in"></feComposite><feGaussianBlur stdDeviation="4.58"></feGaussianBlur><feOffset dx="1" dy="1" result="afterOffset"></feOffset><feFlood flood-color="#3627e7" flood-opacity="0.5"></feFlood><feComposite in2="afterOffset" operator="in"></feComposite><feMorphology operator="dilate" radius="5"></feMorphology><feComposite in2="SourceAlpha" operator="out"></feComposite></filter><path d="M570.75 502.4L570.75 687.3L377.68 687.3L377.68 502.4L570.75 502.4Z" id="i14NuCAKam" fill="white" fill-opacity="1" filter="url(#shadow9665823)"></path></g><use xlink:href="#c4Uy2ZHwE0" opacity="1" fill="#f22003" fill-opacity="1"></use><g><use xlink:href="#c4Uy2ZHwE0" opacity="1" fill-opacity="0" stroke="#000000" stroke-width="1" stroke-opacity="0"></use></g></g><g><g><filter id="shadow11508800" x="289.23" y="326.14" width="370.96" height="228.38" filterUnits="userSpaceOnUse" primitiveUnits="userSpaceOnUse"><feFlood></feFlood><feComposite in2="SourceAlpha" operator="in"></feComposite><feGaussianBlur stdDeviation="4.58"></feGaussianBlur><feOffset dx="1" dy="1" result="afterOffset"></feOffset><feFlood flood-color="#3627e7" flood-opacity="0.5"></feFlood><feComposite in2="afterOffset" operator="in"></feComposite><feMorphology operator="dilate" radius="5"></feMorphology><feComposite in2="SourceAlpha" operator="out"></feComposite></filter><path d="M606.19 500.52L474.21 500.52L342.23 500.52L408.22 439.83L474.21 379.14L540.21 439.83L606.19 500.52Z" id="efkbazIWZ" fill="white" fill-opacity="1" filter="url(#shadow11508800)"></path></g><use xlink:href="#aOgQVYVAM" opacity="1" fill="#f22003" fill-opacity="1"></use><g><use xlink:href="#aOgQVYVAM" opacity="1" fill-opacity="0" stroke="#000000" stroke-width="1" stroke-opacity="0"></use></g></g></g></g></g></svg>