<?xml version="1.0" encoding="UTF-8" standalone="no"?>
<!DOCTYPE svg PUBLIC "-//W3C//DTD SVG 1.1//EN" "http://www.w3.org/Graphics/SVG/1.1/DTD/svg11.dtd">
<svg version="1.1" xmlns="http://www.w3.org/2000/svg" xmlns:xlink="http://www.w3.org/1999/xlink" preserveAspectRatio="xMidYMid meet" viewBox="0 0 276 325" width="276" height="325"><defs><path d="M749.5 183.48L749.5 371.21L547.62 371.21L547.62 183.48L749.5 183.48Z" id="cie6AoxHB"></path><path d="M786.56 181.57L648.56 181.57L510.56 181.57L579.56 119.95L648.56 58.33L717.57 119.95L786.56 181.57Z" id="b1cCljlU1R"></path><path d="M197.62 526.51L197.62 718.27L-4.25 718.27L-4.25 526.51L197.62 526.51Z" id="e9GyuewIzm"></path><path d="M234.68 524.56L96.68 524.56L-41.32 524.56L27.68 461.62L96.68 398.68L165.69 461.62L234.68 524.56Z" id="d6fMIXjmE1"></path><path d="M197.62 526.51L197.62 718.27L-4.25 718.27L-4.25 526.51L197.62 526.51Z" id="b4PKEo8oPz"></path><path d="M234.68 524.56L96.68 524.56L-41.32 524.56L27.68 461.62L96.68 398.68L165.69 461.62L234.68 524.56Z" id="o7j4AGhILb"></path><path d="M234.54 130.54L234.54 315.44L41.47 315.44L41.47 130.54L234.54 130.54Z" id="a1hL6i4G6"></path><path d="M269.98 128.66L138 128.66L6.02 128.66L72.01 67.97L138 7.28L204 67.97L269.98 128.66Z" id="g25A5q4x1i"></path><path d="M234.54 130.54L234.54 315.44L41.47 315.44L41.47 130.54L234.54 130.54Z" id="f5U0ieAcWx"></path><path d="M269.98 128.66L138 128.66L6.02 128.66L72.01 67.97L138 7.28L204 67.97L269.98 128.66Z" id="a10TREfN7S"></path><path d="M564.19 -109.77L564.19 75.13L371.12 75.13L371.12 -109.77L564.19 -109.77Z" id="j45Bco5lG"></path><path d="M599.63 -111.65L467.65 -111.65L335.67 -111.65L401.66 -172.34L467.65 -233.03L533.65 -172.34L599.63 -111.65Z" id="fJDZ4AslD"></path><path d="M564.19 -109.77L564.19 75.13L371.12 75.13L371.12 -109.77L564.19 -109.77Z" id="c9w44QOlB"></path><path d="M599.63 -111.65L467.65 -111.65L335.67 -111.65L401.66 -172.34L467.65 -233.03L533.65 -172.34L599.63 -111.65Z" id="c10BWSs4N7"></path><path d="M-504.07 -20.55L-504.07 171.21L-705.94 171.21L-705.94 -20.55L-504.07 -20.55Z" id="h8JO3FCnwy"></path><path d="M-467.01 -22.5L-605.01 -22.5L-743.01 -22.5L-674.01 -85.44L-605.01 -148.39L-536 -85.44L-467.01 -22.5Z" id="c4oaOc02o3"></path><path d="M-504.07 -20.55L-504.07 171.21L-705.94 171.21L-705.94 -20.55L-504.07 -20.55Z" id="b26EcyFJPA"></path><path d="M-467.01 -22.5L-605.01 -22.5L-743.01 -22.5L-674.01 -85.44L-605.01 -148.39L-536 -85.44L-467.01 -22.5Z" id="a31ckKV4Jy"></path><path d="M-115.9 119.68L-115.9 311.44L-317.77 311.44L-317.77 119.68L-115.9 119.68Z" id="e3ZFwUAZh1"></path><path d="M-78.84 117.73L-216.84 117.73L-354.84 117.73L-285.84 54.79L-216.84 -8.16L-147.83 54.79L-78.84 117.73Z" id="e2KHdXtkZE"></path><path d="M-115.9 119.68L-115.9 311.44L-317.77 311.44L-317.77 119.68L-115.9 119.68Z" id="a2FqTqijwy"></path><path d="M-78.84 117.73L-216.84 117.73L-354.84 117.73L-285.84 54.79L-216.84 -8.16L-147.83 54.79L-78.84 117.73Z" id="b6Dev0Fca2"></path><path d="M-505.2 409.22L-505.2 594.12L-698.27 594.12L-698.27 409.22L-505.2 409.22Z" id="a8p6O96xn"></path><path d="M-469.76 407.34L-601.74 407.34L-733.72 407.34L-667.73 346.65L-601.74 285.96L-535.74 346.65L-469.76 407.34Z" id="b10LOWBN7R"></path><path d="M-505.2 409.22L-505.2 594.12L-698.27 594.12L-698.27 409.22L-505.2 409.22Z" id="abXWdpvan"></path><path d="M-469.76 407.34L-601.74 407.34L-733.72 407.34L-667.73 346.65L-601.74 285.96L-535.74 346.65L-469.76 407.34Z" id="b1ndUzbRh3"></path></defs><g><g><g><g><g><filter id="shadow4610054" x="538.62" y="174.48" width="220.87" height="206.73" filterUnits="userSpaceOnUse" primitiveUnits="userSpaceOnUse"><feFlood></feFlood><feComposite in2="SourceAlpha" operator="in"></feComposite><feGaussianBlur stdDeviation="1"></feGaussianBlur><feOffset dx="1" dy="1" result="afterOffset"></feOffset><feFlood flood-color="#000000" flood-opacity="0.5"></feFlood><feComposite in2="afterOffset" operator="in"></feComposite><feMorphology operator="dilate" radius="1"></feMorphology><feComposite in2="SourceAlpha" operator="out"></feComposite></filter><path d="M749.5 183.48L749.5 371.21L547.62 371.21L547.62 183.48L749.5 183.48Z" id="f5fNhFCR1X" fill="white" fill-opacity="1" filter="url(#shadow4610054)"></path></g><use xlink:href="#cie6AoxHB" opacity="1" fill="#868591" fill-opacity="1"></use><g><use xlink:href="#cie6AoxHB" opacity="1" fill-opacity="0" stroke="#000000" stroke-width="1" stroke-opacity="0"></use></g></g><g><g><filter id="shadow796367" x="501.56" y="49.33" width="295" height="142.24" filterUnits="userSpaceOnUse" primitiveUnits="userSpaceOnUse"><feFlood></feFlood><feComposite in2="SourceAlpha" operator="in"></feComposite><feGaussianBlur stdDeviation="1"></feGaussianBlur><feOffset dx="1" dy="1" result="afterOffset"></feOffset><feFlood flood-color="#000000" flood-opacity="0.5"></feFlood><feComposite in2="afterOffset" operator="in"></feComposite><feMorphology operator="dilate" radius="1"></feMorphology><feComposite in2="SourceAlpha" operator="out"></feComposite></filter><path d="M786.56 181.57L648.56 181.57L510.56 181.57L579.56 119.95L648.56 58.33L717.57 119.95L786.56 181.57Z" id="a297BNRPNF" fill="white" fill-opacity="1" filter="url(#shadow796367)"></path></g><use xlink:href="#b1cCljlU1R" opacity="1" fill="#868591" fill-opacity="1"></use><g><use xlink:href="#b1cCljlU1R" opacity="1" fill-opacity="0" stroke="#000000" stroke-width="1" stroke-opacity="0"></use></g></g></g><g><g><use xlink:href="#e9GyuewIzm" opacity="1" fill="#050000" fill-opacity="1"></use><g><use xlink:href="#e9GyuewIzm" opacity="1" fill-opacity="0" stroke="#000000" stroke-width="1" stroke-opacity="0"></use></g></g><g><use xlink:href="#d6fMIXjmE1" opacity="1" fill="#050000" fill-opacity="1"></use><g><use xlink:href="#d6fMIXjmE1" opacity="1" fill-opacity="0" stroke="#000000" stroke-width="1" stroke-opacity="0"></use></g></g><g><use xlink:href="#b4PKEo8oPz" opacity="1" fill="#050000" fill-opacity="1"></use><g><use xlink:href="#b4PKEo8oPz" opacity="1" fill-opacity="0" stroke="#000000" stroke-width="1" stroke-opacity="0"></use></g></g><g><use xlink:href="#o7j4AGhILb" opacity="1" fill="#050000" fill-opacity="1"></use><g><use xlink:href="#o7j4AGhILb" opacity="1" fill-opacity="0" stroke="#000000" stroke-width="1" stroke-opacity="0"></use></g></g></g><g><g><g><filter id="shadow6188648" x="-11.53" y="77.54" width="300.07" height="291.9" filterUnits="userSpaceOnUse" primitiveUnits="userSpaceOnUse"><feFlood></feFlood><feComposite in2="SourceAlpha" operator="in"></feComposite><feGaussianBlur stdDeviation="4.58"></feGaussianBlur><feOffset dx="1" dy="1" result="afterOffset"></feOffset><feFlood flood-color="#3627e7" flood-opacity="0.5"></feFlood><feComposite in2="afterOffset" operator="in"></feComposite><feMorphology operator="dilate" radius="5"></feMorphology><feComposite in2="SourceAlpha" operator="out"></feComposite></filter><path d="M234.54 130.54L234.54 315.44L41.47 315.44L41.47 130.54L234.54 130.54Z" id="b15eh6qgdC" fill="white" fill-opacity="1" filter="url(#shadow6188648)"></path></g><use xlink:href="#a1hL6i4G6" opacity="1" fill="#ff7100" fill-opacity="1"></use><g><use xlink:href="#a1hL6i4G6" opacity="1" fill-opacity="0" stroke="#000000" stroke-width="1" stroke-opacity="0"></use></g></g><g><g><filter id="shadow1819788" x="-46.98" y="-45.72" width="370.96" height="228.38" filterUnits="userSpaceOnUse" primitiveUnits="userSpaceOnUse"><feFlood></feFlood><feComposite in2="SourceAlpha" operator="in"></feComposite><feGaussianBlur stdDeviation="4.58"></feGaussianBlur><feOffset dx="1" dy="1" result="afterOffset"></feOffset><feFlood flood-color="#3627e7" flood-opacity="0.5"></feFlood><feComposite in2="afterOffset" operator="in"></feComposite><feMorphology operator="dilate" radius="5"></feMorphology><feComposite in2="SourceAlpha" operator="out"></feComposite></filter><path d="M269.98 128.66L138 128.66L6.02 128.66L72.01 67.97L138 7.28L204 67.97L269.98 128.66Z" id="dWhLIUNIi" fill="white" fill-opacity="1" filter="url(#shadow1819788)"></path></g><use xlink:href="#g25A5q4x1i" opacity="1" fill="#ff7100" fill-opacity="1"></use><g><use xlink:href="#g25A5q4x1i" opacity="1" fill-opacity="0" stroke="#000000" stroke-width="1" stroke-opacity="0"></use></g></g><g><g><filter id="shadow3219194" x="-11.53" y="77.54" width="300.07" height="291.9" filterUnits="userSpaceOnUse" primitiveUnits="userSpaceOnUse"><feFlood></feFlood><feComposite in2="SourceAlpha" operator="in"></feComposite><feGaussianBlur stdDeviation="4.58"></feGaussianBlur><feOffset dx="1" dy="1" result="afterOffset"></feOffset><feFlood flood-color="#3627e7" flood-opacity="0.5"></feFlood><feComposite in2="afterOffset" operator="in"></feComposite><feMorphology operator="dilate" radius="5"></feMorphology><feComposite in2="SourceAlpha" operator="out"></feComposite></filter><path d="M234.54 130.54L234.54 315.44L41.47 315.44L41.47 130.54L234.54 130.54Z" id="a3WNZMoFPl" fill="white" fill-opacity="1" filter="url(#shadow3219194)"></path></g><use xlink:href="#f5U0ieAcWx" opacity="1" fill="#ff7100" fill-opacity="1"></use><g><use xlink:href="#f5U0ieAcWx" opacity="1" fill-opacity="0" stroke="#000000" stroke-width="1" stroke-opacity="0"></use></g></g><g><g><filter id="shadow1410864" x="-46.98" y="-45.72" width="370.96" height="228.38" filterUnits="userSpaceOnUse" primitiveUnits="userSpaceOnUse"><feFlood></feFlood><feComposite in2="SourceAlpha" operator="in"></feComposite><feGaussianBlur stdDeviation="4.58"></feGaussianBlur><feOffset dx="1" dy="1" result="afterOffset"></feOffset><feFlood flood-color="#3627e7" flood-opacity="0.5"></feFlood><feComposite in2="afterOffset" operator="in"></feComposite><feMorphology operator="dilate" radius="5"></feMorphology><feComposite in2="SourceAlpha" operator="out"></feComposite></filter><path d="M269.98 128.66L138 128.66L6.02 128.66L72.01 67.97L138 7.28L204 67.97L269.98 128.66Z" id="g1tYCh9lD8" fill="white" fill-opacity="1" filter="url(#shadow1410864)"></path></g><use xlink:href="#a10TREfN7S" opacity="1" fill="#ff7100" fill-opacity="1"></use><g><use xlink:href="#a10TREfN7S" opacity="1" fill-opacity="0" stroke="#000000" stroke-width="1" stroke-opacity="0"></use></g></g></g><g><g><g><filter id="shadow9556483" x="318.12" y="-162.77" width="300.07" height="291.9" filterUnits="userSpaceOnUse" primitiveUnits="userSpaceOnUse"><feFlood></feFlood><feComposite in2="SourceAlpha" operator="in"></feComposite><feGaussianBlur stdDeviation="4.58"></feGaussianBlur><feOffset dx="1" dy="1" result="afterOffset"></feOffset><feFlood flood-color="#3627e7" flood-opacity="0.5"></feFlood><feComposite in2="afterOffset" operator="in"></feComposite><feMorphology operator="dilate" radius="5"></feMorphology><feComposite in2="SourceAlpha" operator="out"></feComposite></filter><path d="M564.19 -109.77L564.19 75.13L371.12 75.13L371.12 -109.77L564.19 -109.77Z" id="bS25CUamF" fill="white" fill-opacity="1" filter="url(#shadow9556483)"></path></g><use xlink:href="#j45Bco5lG" opacity="1" fill="#050000" fill-opacity="1"></use><g><use xlink:href="#j45Bco5lG" opacity="1" fill-opacity="0" stroke="#000000" stroke-width="1" stroke-opacity="0"></use></g></g><g><g><filter id="shadow12721679" x="282.67" y="-286.03" width="370.96" height="228.38" filterUnits="userSpaceOnUse" primitiveUnits="userSpaceOnUse"><feFlood></feFlood><feComposite in2="SourceAlpha" operator="in"></feComposite><feGaussianBlur stdDeviation="4.58"></feGaussianBlur><feOffset dx="1" dy="1" result="afterOffset"></feOffset><feFlood flood-color="#3627e7" flood-opacity="0.5"></feFlood><feComposite in2="afterOffset" operator="in"></feComposite><feMorphology operator="dilate" radius="5"></feMorphology><feComposite in2="SourceAlpha" operator="out"></feComposite></filter><path d="M599.63 -111.65L467.65 -111.65L335.67 -111.65L401.66 -172.34L467.65 -233.03L533.65 -172.34L599.63 -111.65Z" id="anGxKUNPU" fill="white" fill-opacity="1" filter="url(#shadow12721679)"></path></g><use xlink:href="#fJDZ4AslD" opacity="1" fill="#050000" fill-opacity="1"></use><g><use xlink:href="#fJDZ4AslD" opacity="1" fill-opacity="0" stroke="#000000" stroke-width="1" stroke-opacity="0"></use></g></g><g><g><filter id="shadow11297039" x="318.12" y="-162.77" width="300.07" height="291.9" filterUnits="userSpaceOnUse" primitiveUnits="userSpaceOnUse"><feFlood></feFlood><feComposite in2="SourceAlpha" operator="in"></feComposite><feGaussianBlur stdDeviation="4.58"></feGaussianBlur><feOffset dx="1" dy="1" result="afterOffset"></feOffset><feFlood flood-color="#3627e7" flood-opacity="0.5"></feFlood><feComposite in2="afterOffset" operator="in"></feComposite><feMorphology operator="dilate" radius="5"></feMorphology><feComposite in2="SourceAlpha" operator="out"></feComposite></filter><path d="M564.19 -109.77L564.19 75.13L371.12 75.13L371.12 -109.77L564.19 -109.77Z" id="a6r1c4NSG" fill="white" fill-opacity="1" filter="url(#shadow11297039)"></path></g><use xlink:href="#c9w44QOlB" opacity="1" fill="#050000" fill-opacity="1"></use><g><use xlink:href="#c9w44QOlB" opacity="1" fill-opacity="0" stroke="#000000" stroke-width="1" stroke-opacity="0"></use></g></g><g><g><filter id="shadow9053559" x="282.67" y="-286.03" width="370.96" height="228.38" filterUnits="userSpaceOnUse" primitiveUnits="userSpaceOnUse"><feFlood></feFlood><feComposite in2="SourceAlpha" operator="in"></feComposite><feGaussianBlur stdDeviation="4.58"></feGaussianBlur><feOffset dx="1" dy="1" result="afterOffset"></feOffset><feFlood flood-color="#3627e7" flood-opacity="0.5"></feFlood><feComposite in2="afterOffset" operator="in"></feComposite><feMorphology operator="dilate" radius="5"></feMorphology><feComposite in2="SourceAlpha" operator="out"></feComposite></filter><path d="M599.63 -111.65L467.65 -111.65L335.67 -111.65L401.66 -172.34L467.65 -233.03L533.65 -172.34L599.63 -111.65Z" id="a28REFyqT3" fill="white" fill-opacity="1" filter="url(#shadow9053559)"></path></g><use xlink:href="#c10BWSs4N7" opacity="1" fill="#050000" fill-opacity="1"></use><g><use xlink:href="#c10BWSs4N7" opacity="1" fill-opacity="0" stroke="#000000" stroke-width="1" stroke-opacity="0"></use></g></g></g><g><g><use xlink:href="#h8JO3FCnwy" opacity="1" fill="#050000" fill-opacity="1"></use><g><use xlink:href="#h8JO3FCnwy" opacity="1" fill-opacity="0" stroke="#000000" stroke-width="1" stroke-opacity="0"></use></g></g><g><use xlink:href="#c4oaOc02o3" opacity="1" fill="#050000" fill-opacity="1"></use><g><use xlink:href="#c4oaOc02o3" opacity="1" fill-opacity="0" stroke="#000000" stroke-width="1" stroke-opacity="0"></use></g></g><g><use xlink:href="#b26EcyFJPA" opacity="1" fill="#050000" fill-opacity="1"></use><g><use xlink:href="#b26EcyFJPA" opacity="1" fill-opacity="0" stroke="#000000" stroke-width="1" stroke-opacity="0"></use></g></g><g><use xlink:href="#a31ckKV4Jy" opacity="1" fill="#050000" fill-opacity="1"></use><g><use xlink:href="#a31ckKV4Jy" opacity="1" fill-opacity="0" stroke="#000000" stroke-width="1" stroke-opacity="0"></use></g></g></g><g><g><use xlink:href="#e3ZFwUAZh1" opacity="1" fill="#ff7100" fill-opacity="1"></use><g><use xlink:href="#e3ZFwUAZh1" opacity="1" fill-opacity="0" stroke="#000000" stroke-width="1" stroke-opacity="0"></use></g></g><g><use xlink:href="#e2KHdXtkZE" opacity="1" fill="#ff7100" fill-opacity="1"></use><g><use xlink:href="#e2KHdXtkZE" opacity="1" fill-opacity="0" stroke="#000000" stroke-width="1" stroke-opacity="0"></use></g></g><g><use xlink:href="#a2FqTqijwy" opacity="1" fill="#ff7100" fill-opacity="1"></use><g><use xlink:href="#a2FqTqijwy" opacity="1" fill-opacity="0" stroke="#000000" stroke-width="1" stroke-opacity="0"></use></g></g><g><use xlink:href="#b6Dev0Fca2" opacity="1" fill="#ff7100" fill-opacity="1"></use><g><use xlink:href="#b6Dev0Fca2" opacity="1" fill-opacity="0" stroke="#000000" stroke-width="1" stroke-opacity="0"></use></g></g></g><g><g><g><filter id="shadow6944400" x="-751.27" y="356.22" width="300.07" height="291.9" filterUnits="userSpaceOnUse" primitiveUnits="userSpaceOnUse"><feFlood></feFlood><feComposite in2="SourceAlpha" operator="in"></feComposite><feGaussianBlur stdDeviation="4.58"></feGaussianBlur><feOffset dx="1" dy="1" result="afterOffset"></feOffset><feFlood flood-color="#3627e7" flood-opacity="0.5"></feFlood><feComposite in2="afterOffset" operator="in"></feComposite><feMorphology operator="dilate" radius="5"></feMorphology><feComposite in2="SourceAlpha" operator="out"></feComposite></filter><path d="M-505.2 409.22L-505.2 594.12L-698.27 594.12L-698.27 409.22L-505.2 409.22Z" id="f4d3lxjUu" fill="white" fill-opacity="1" filter="url(#shadow6944400)"></path></g><use xlink:href="#a8p6O96xn" opacity="1" fill="#050000" fill-opacity="1"></use><g><use xlink:href="#a8p6O96xn" opacity="1" fill-opacity="0" stroke="#000000" stroke-width="1" stroke-opacity="0"></use></g></g><g><g><filter id="shadow10889488" x="-786.72" y="232.96" width="370.96" height="228.38" filterUnits="userSpaceOnUse" primitiveUnits="userSpaceOnUse"><feFlood></feFlood><feComposite in2="SourceAlpha" operator="in"></feComposite><feGaussianBlur stdDeviation="4.58"></feGaussianBlur><feOffset dx="1" dy="1" result="afterOffset"></feOffset><feFlood flood-color="#3627e7" flood-opacity="0.5"></feFlood><feComposite in2="afterOffset" operator="in"></feComposite><feMorphology operator="dilate" radius="5"></feMorphology><feComposite in2="SourceAlpha" operator="out"></feComposite></filter><path d="M-469.76 407.34L-601.74 407.34L-733.72 407.34L-667.73 346.65L-601.74 285.96L-535.74 346.65L-469.76 407.34Z" id="e9SGZymBL" fill="white" fill-opacity="1" filter="url(#shadow10889488)"></path></g><use xlink:href="#b10LOWBN7R" opacity="1" fill="#050000" fill-opacity="1"></use><g><use xlink:href="#b10LOWBN7R" opacity="1" fill-opacity="0" stroke="#000000" stroke-width="1" stroke-opacity="0"></use></g></g><g><g><filter id="shadow5836483" x="-751.27" y="356.22" width="300.07" height="291.9" filterUnits="userSpaceOnUse" primitiveUnits="userSpaceOnUse"><feFlood></feFlood><feComposite in2="SourceAlpha" operator="in"></feComposite><feGaussianBlur stdDeviation="4.58"></feGaussianBlur><feOffset dx="1" dy="1" result="afterOffset"></feOffset><feFlood flood-color="#3627e7" flood-opacity="0.5"></feFlood><feComposite in2="afterOffset" operator="in"></feComposite><feMorphology operator="dilate" radius="5"></feMorphology><feComposite in2="SourceAlpha" operator="out"></feComposite></filter><path d="M-505.2 409.22L-505.2 594.12L-698.27 594.12L-698.27 409.22L-505.2 409.22Z" id="k2fdsvvh3K" fill="white" fill-opacity="1" filter="url(#shadow5836483)"></path></g><use xlink:href="#abXWdpvan" opacity="1" fill="#050000" fill-opacity="1"></use><g><use xlink:href="#abXWdpvan" opacity="1" fill-opacity="0" stroke="#000000" stroke-width="1" stroke-opacity="0"></use></g></g><g><g><filter id="shadow12331506" x="-786.72" y="232.96" width="370.96" height="228.38" filterUnits="userSpaceOnUse" primitiveUnits="userSpaceOnUse"><feFlood></feFlood><feComposite in2="SourceAlpha" operator="in"></feComposite><feGaussianBlur stdDeviation="4.58"></feGaussianBlur><feOffset dx="1" dy="1" result="afterOffset"></feOffset><feFlood flood-color="#3627e7" flood-opacity="0.5"></feFlood><feComposite in2="afterOffset" operator="in"></feComposite><feMorphology operator="dilate" radius="5"></feMorphology><feComposite in2="SourceAlpha" operator="out"></feComposite></filter><path d="M-469.76 407.34L-601.74 407.34L-733.72 407.34L-667.73 346.65L-601.74 285.96L-535.74 346.65L-469.76 407.34Z" id="i4cGZ2b7J6" fill="white" fill-opacity="1" filter="url(#shadow12331506)"></path></g><use xlink:href="#b1ndUzbRh3" opacity="1" fill="#050000" fill-opacity="1"></use><g><use xlink:href="#b1ndUzbRh3" opacity="1" fill-opacity="0" stroke="#000000" stroke-width="1" stroke-opacity="0"></use></g></g></g></g></g></svg>