<?xml version="1.0" encoding="UTF-8" standalone="no"?>
<!DOCTYPE svg PUBLIC "-//W3C//DTD SVG 1.1//EN" "http://www.w3.org/Graphics/SVG/1.1/DTD/svg11.dtd">
<svg version="1.1" xmlns="http://www.w3.org/2000/svg" xmlns:xlink="http://www.w3.org/1999/xlink" preserveAspectRatio="xMidYMid meet" viewBox="178.33555157574696 129.51495219934563 235.8758278145697 436.53807947019857" width="231.13" height="431.79"><defs><path d="M180.09 158.8L411.21 158.8L411.21 535.52L180.09 535.52L180.09 158.8Z" id="b1p9037XHU"></path><path d="M411.21 158.8C411.21 173.99 359.43 186.33 295.65 186.33C231.87 186.33 180.09 173.99 180.09 158.8C180.09 143.6 231.87 131.26 295.65 131.26C359.43 131.26 411.21 143.6 411.21 158.8Z" id="b2EgdfksSY"></path><path d="M411.21 535.52C411.21 550.72 359.43 563.05 295.65 563.05C231.87 563.05 180.09 550.72 180.09 535.52C180.09 520.33 231.87 507.99 295.65 507.99C359.43 507.99 411.21 520.33 411.21 535.52Z" id="cJ2xgIOTf"></path></defs><g><g><use xlink:href="#b1p9037XHU" opacity="1" fill="#656566" fill-opacity="1"></use></g><g><use xlink:href="#b2EgdfksSY" opacity="1" fill="#a2a2a2" fill-opacity="1"></use><g><use xlink:href="#b2EgdfksSY" opacity="1" fill-opacity="0" stroke="#000000" stroke-width="3.5" stroke-opacity="1"></use></g></g><g><use xlink:href="#cJ2xgIOTf" opacity="1" fill="#656566" fill-opacity="1"></use></g></g></svg>