<?xml version="1.0" encoding="UTF-8" standalone="no"?>
<!DOCTYPE svg PUBLIC "-//W3C//DTD SVG 1.1//EN" "http://www.w3.org/Graphics/SVG/1.1/DTD/svg11.dtd">
<svg version="1.1" xmlns="http://www.w3.org/2000/svg" xmlns:xlink="http://www.w3.org/1999/xlink" preserveAspectRatio="xMidYMid meet" viewBox="0 0 231 432" width="231" height="432"><defs><path d="M-234.93 -464.05L-234.93 -95.23L-461.2 -95.23L-461.2 -464.05L-234.93 -464.05Z" id="cC6TroDld"></path><path d="M-348.06 -437.09C-410.51 -437.09 -461.2 -449.18 -461.2 -464.05C-461.2 -478.93 -410.51 -491.01 -348.06 -491.01C-285.62 -491.01 -234.93 -478.93 -234.93 -464.05C-234.93 -449.18 -285.62 -437.09 -348.06 -437.09Z" id="e3CQmlJas"></path><path d="M-348.06 -437.09C-410.51 -437.09 -461.2 -449.18 -461.2 -464.05C-461.2 -478.93 -410.51 -491.01 -348.06 -491.01C-285.62 -491.01 -234.93 -478.93 -234.93 -464.05C-234.93 -449.18 -285.62 -437.09 -348.06 -437.09Z" id="b1803OD19f"></path><path d="M-348.06 -68.28C-410.51 -68.28 -461.2 -80.35 -461.2 -95.23C-461.2 -110.1 -410.51 -122.18 -348.06 -122.18C-285.62 -122.18 -234.93 -110.1 -234.93 -95.23C-234.93 -80.35 -285.62 -68.28 -348.06 -68.28Z" id="c3CfQp79Ep"></path><path d="M549.34 -271.67L549.34 86.98L338.41 86.98L338.41 -271.67L549.34 -271.67Z" id="a1Ju52fnfv"></path><path d="M443.88 -245.46C385.67 -245.46 338.41 -257.21 338.41 -271.67C338.41 -286.14 385.67 -297.89 443.88 -297.89C502.09 -297.89 549.34 -286.14 549.34 -271.67C549.34 -257.21 502.09 -245.46 443.88 -245.46Z" id="eUprWquKf"></path><path d="M443.88 -245.46C385.67 -245.46 338.41 -257.21 338.41 -271.67C338.41 -286.14 385.67 -297.89 443.88 -297.89C502.09 -297.89 549.34 -286.14 549.34 -271.67C549.34 -257.21 502.09 -245.46 443.88 -245.46Z" id="gVhWWTyXC"></path><path d="M443.88 113.18C385.67 113.18 338.41 101.45 338.41 86.98C338.41 72.51 385.67 60.77 443.88 60.77C502.09 60.77 549.34 72.51 549.34 86.98C549.34 101.45 502.09 113.18 443.88 113.18Z" id="k1JQkwL5n"></path><path d="M-348.06 26.96L-348.06 395.77L-574.33 395.77L-574.33 26.96L-348.06 26.96Z" id="bcYlzPqyB"></path><path d="M-461.2 53.91C-523.64 53.91 -574.33 41.83 -574.33 26.96C-574.33 12.08 -523.64 0 -461.2 0C-398.76 0 -348.06 12.08 -348.06 26.96C-348.06 41.83 -398.76 53.91 -461.2 53.91Z" id="b2VKgGPfS"></path><path d="M-461.2 53.91C-523.64 53.91 -574.33 41.83 -574.33 26.96C-574.33 12.08 -523.64 0 -461.2 0C-398.76 0 -348.06 12.08 -348.06 26.96C-348.06 41.83 -398.76 53.91 -461.2 53.91Z" id="ca4JXocli"></path><path d="M-461.2 422.73C-523.64 422.73 -574.33 410.66 -574.33 395.78C-574.33 380.91 -523.64 368.82 -461.2 368.82C-398.76 368.82 -348.06 380.91 -348.06 395.78C-348.06 410.66 -398.76 422.73 -461.2 422.73Z" id="c1uYAme64Q"></path><path d="M199.43 -615.92L199.43 -255.71L-11.5 -255.71L-11.5 -615.92L199.43 -615.92Z" id="aUdhOVVKL"></path><path d="M93.96 -589.59C35.76 -589.59 -11.5 -601.39 -11.5 -615.92C-11.5 -630.45 35.76 -642.25 93.96 -642.25C152.17 -642.25 199.43 -630.45 199.43 -615.92C199.43 -601.39 152.17 -589.59 93.96 -589.59Z" id="a1CtGVvJlp"></path><path d="M93.96 -589.59C35.76 -589.59 -11.5 -601.39 -11.5 -615.92C-11.5 -630.45 35.76 -642.25 93.96 -642.25C152.17 -642.25 199.43 -630.45 199.43 -615.92C199.43 -601.39 152.17 -589.59 93.96 -589.59Z" id="a1BhD6Yuyh"></path><path d="M93.96 -229.38C35.76 -229.38 -11.5 -241.17 -11.5 -255.71C-11.5 -270.23 35.76 -282.03 93.96 -282.03C152.17 -282.03 199.43 -270.23 199.43 -255.71C199.43 -241.17 152.17 -229.38 93.96 -229.38Z" id="i3UA4jokGg"></path><path d="M1018.63 95.29L1018.63 464.1L792.37 464.1L792.37 95.29L1018.63 95.29Z" id="bwhfOupAM"></path><path d="M905.5 122.25C843.06 122.25 792.37 110.17 792.37 95.3C792.37 80.41 843.06 68.33 905.5 68.33C967.94 68.33 1018.63 80.41 1018.63 95.3C1018.63 110.17 967.94 122.25 905.5 122.25Z" id="c15A0gvg3p"></path><path d="M905.5 122.25C843.06 122.25 792.37 110.17 792.37 95.3C792.37 80.41 843.06 68.33 905.5 68.33C967.94 68.33 1018.63 80.41 1018.63 95.3C1018.63 110.17 967.94 122.25 905.5 122.25Z" id="c4EGmnOpGq"></path><path d="M905.5 491.06C843.06 491.06 792.37 478.99 792.37 464.11C792.37 449.24 843.06 437.16 905.5 437.16C967.94 437.16 1018.63 449.24 1018.63 464.11C1018.63 478.99 967.94 491.06 905.5 491.06Z" id="a7fcUsNxER"></path><path d="M1285.97 106.21L1285.97 464.85L1075.03 464.85L1075.03 106.21L1285.97 106.21Z" id="b1hz4mGP3d"></path><path d="M1180.5 132.42C1122.29 132.42 1075.03 120.67 1075.03 106.21C1075.03 91.74 1122.29 79.99 1180.5 79.99C1238.71 79.99 1285.97 91.74 1285.97 106.21C1285.97 120.67 1238.71 132.42 1180.5 132.42Z" id="fCW99Mc7"></path><path d="M1180.5 132.42C1122.29 132.42 1075.03 120.67 1075.03 106.21C1075.03 91.74 1122.29 79.99 1180.5 79.99C1238.71 79.99 1285.97 91.74 1285.97 106.21C1285.97 120.67 1238.71 132.42 1180.5 132.42Z" id="b2KkRSJqB"></path><path d="M1180.5 491.06C1122.29 491.06 1075.03 479.32 1075.03 464.85C1075.03 450.39 1122.29 438.64 1180.5 438.64C1238.71 438.64 1285.97 450.39 1285.97 464.85C1285.97 479.32 1238.71 491.06 1180.5 491.06Z" id="b1KSe3Veft"></path><path d="M-65.86 20.15L-65.86 378.79L-276.79 378.79L-276.79 20.15L-65.86 20.15Z" id="c1vG1eBFfK"></path><path d="M-171.33 46.36C-229.54 46.36 -276.79 34.61 -276.79 20.15C-276.79 5.68 -229.54 -6.07 -171.33 -6.07C-113.12 -6.07 -65.86 5.68 -65.86 20.15C-65.86 34.61 -113.12 46.36 -171.33 46.36Z" id="aHs90rDWc"></path><path d="M-171.33 46.36C-229.54 46.36 -276.79 34.61 -276.79 20.15C-276.79 5.68 -229.54 -6.07 -171.33 -6.07C-113.12 -6.07 -65.86 5.68 -65.86 20.15C-65.86 34.61 -113.12 46.36 -171.33 46.36Z" id="asm1nMp52"></path><path d="M-171.33 405C-229.54 405 -276.79 393.26 -276.79 378.79C-276.79 364.33 -229.54 352.58 -171.33 352.58C-113.12 352.58 -65.86 364.33 -65.86 378.79C-65.86 393.26 -113.12 405 -171.33 405Z" id="azq9Pp0bZ"></path><path d="M229 33.26L229 402.08L2.73 402.08L2.73 33.26L229 33.26Z" id="c20ObD8v64"></path><path d="M115.87 60.22C53.42 60.22 2.73 48.14 2.73 33.27C2.73 18.39 53.42 6.31 115.87 6.31C178.31 6.31 229 18.39 229 33.27C229 48.14 178.31 60.22 115.87 60.22Z" id="ag41roYiE"></path><path d="M115.87 60.22C53.42 60.22 2.73 48.14 2.73 33.27C2.73 18.39 53.42 6.31 115.87 6.31C178.31 6.31 229 18.39 229 33.27C229 48.14 178.31 60.22 115.87 60.22Z" id="a4C03YOm6z"></path><path d="M115.87 429.03C53.42 429.03 2.73 416.96 2.73 402.08C2.73 387.21 53.42 375.13 115.87 375.13C178.31 375.13 229 387.21 229 402.08C229 416.96 178.31 429.03 115.87 429.03Z" id="a1s3uv8wTN"></path></defs><g><g><g><g><use xlink:href="#cC6TroDld" opacity="1" fill="#656566" fill-opacity="1"></use><g><use xlink:href="#cC6TroDld" opacity="1" fill-opacity="0" stroke="#000000" stroke-width="1" stroke-opacity="0"></use></g></g><g><use xlink:href="#e3CQmlJas" opacity="1" fill="#a2a2a2" fill-opacity="1"></use><g><use xlink:href="#e3CQmlJas" opacity="1" fill-opacity="0" stroke="#000000" stroke-width="1" stroke-opacity="0"></use></g></g><g><use xlink:href="#b1803OD19f" opacity="1" fill="#000000" fill-opacity="0"></use><g><use xlink:href="#b1803OD19f" opacity="1" fill-opacity="0" stroke="#000000" stroke-width="3.5" stroke-opacity="1"></use></g></g><g><use xlink:href="#c3CfQp79Ep" opacity="1" fill="#656566" fill-opacity="1"></use><g><use xlink:href="#c3CfQp79Ep" opacity="1" fill-opacity="0" stroke="#000000" stroke-width="1" stroke-opacity="0"></use></g></g></g><g><g><g><filter id="shadow14890268" x="263.41" y="-346.67" width="361.93" height="513.64" filterUnits="userSpaceOnUse" primitiveUnits="userSpaceOnUse"><feFlood></feFlood><feComposite in2="SourceAlpha" operator="in"></feComposite><feGaussianBlur stdDeviation="5.39"></feGaussianBlur><feOffset dx="1" dy="5" result="afterOffset"></feOffset><feFlood flood-color="#2720d7" flood-opacity="0.5"></feFlood><feComposite in2="afterOffset" operator="in"></feComposite><feMorphology operator="dilate" radius="7"></feMorphology><feComposite in2="SourceAlpha" operator="out"></feComposite></filter><path d="M549.34 -271.67L549.34 86.98L338.41 86.98L338.41 -271.67L549.34 -271.67Z" id="c3AfEBKW" fill="white" fill-opacity="1" filter="url(#shadow14890268)"></path></g><use xlink:href="#a1Ju52fnfv" opacity="1" fill="#656566" fill-opacity="1"></use><g><use xlink:href="#a1Ju52fnfv" opacity="1" fill-opacity="0" stroke="#000000" stroke-width="1" stroke-opacity="0"></use></g></g><g><g><filter id="shadow5810678" x="267.41" y="-368.89" width="353.93" height="195.43" filterUnits="userSpaceOnUse" primitiveUnits="userSpaceOnUse"><feFlood></feFlood><feComposite in2="SourceAlpha" operator="in"></feComposite><feGaussianBlur stdDeviation="5.39"></feGaussianBlur><feOffset dx="1" dy="1" result="afterOffset"></feOffset><feFlood flood-color="#2720d7" flood-opacity="0.5"></feFlood><feComposite in2="afterOffset" operator="in"></feComposite><feMorphology operator="dilate" radius="7"></feMorphology><feComposite in2="SourceAlpha" operator="out"></feComposite></filter><path d="M443.88 -245.46C385.67 -245.46 338.41 -257.21 338.41 -271.67C338.41 -286.14 385.67 -297.89 443.88 -297.89C502.09 -297.89 549.34 -286.14 549.34 -271.67C549.34 -257.21 502.09 -245.46 443.88 -245.46Z" id="f1C2W6qfBh" fill="white" fill-opacity="1" filter="url(#shadow5810678)"></path></g><use xlink:href="#eUprWquKf" opacity="1" fill="#a2a2a2" fill-opacity="1"></use><g><use xlink:href="#eUprWquKf" opacity="1" fill-opacity="0" stroke="#000000" stroke-width="1" stroke-opacity="0"></use></g></g><g><use xlink:href="#gVhWWTyXC" opacity="1" fill="#000000" fill-opacity="0"></use><g><use xlink:href="#gVhWWTyXC" opacity="1" fill-opacity="0" stroke="#000000" stroke-width="3.5" stroke-opacity="1"></use></g></g><g><g><filter id="shadow15595202" x="263.41" y="-14.23" width="360.93" height="214.42" filterUnits="userSpaceOnUse" primitiveUnits="userSpaceOnUse"><feFlood></feFlood><feComposite in2="SourceAlpha" operator="in"></feComposite><feGaussianBlur stdDeviation="5.29"></feGaussianBlur><feOffset dx="0" dy="12" result="afterOffset"></feOffset><feFlood flood-color="#2720d7" flood-opacity="0.5"></feFlood><feComposite in2="afterOffset" operator="in"></feComposite><feMorphology operator="dilate" radius="2"></feMorphology><feComposite in2="SourceAlpha" operator="out"></feComposite></filter><path d="M443.88 113.18C385.67 113.18 338.41 101.45 338.41 86.98C338.41 72.51 385.67 60.77 443.88 60.77C502.09 60.77 549.34 72.51 549.34 86.98C549.34 101.45 502.09 113.18 443.88 113.18Z" id="b51qBbUmIy" fill="white" fill-opacity="1" filter="url(#shadow15595202)"></path></g><use xlink:href="#k1JQkwL5n" opacity="1" fill="#656566" fill-opacity="1"></use><g><use xlink:href="#k1JQkwL5n" opacity="1" fill-opacity="0" stroke="#000000" stroke-width="1" stroke-opacity="0"></use></g></g></g><g><g><use xlink:href="#bcYlzPqyB" opacity="1" fill="#000000" fill-opacity="1"></use><g><use xlink:href="#bcYlzPqyB" opacity="1" fill-opacity="0" stroke="#000000" stroke-width="1" stroke-opacity="0"></use></g></g><g><use xlink:href="#b2VKgGPfS" opacity="1" fill="#000000" fill-opacity="1"></use><g><use xlink:href="#b2VKgGPfS" opacity="1" fill-opacity="0" stroke="#b3b3b3" stroke-width="1" stroke-opacity="1"></use></g></g><g><use xlink:href="#ca4JXocli" opacity="1" fill="#000000" fill-opacity="0"></use><g><use xlink:href="#ca4JXocli" opacity="1" fill-opacity="0" stroke="#b3b3b3" stroke-width="3.5" stroke-opacity="1"></use></g></g><g><use xlink:href="#c1uYAme64Q" opacity="1" fill="#000000" fill-opacity="1"></use><g><use xlink:href="#c1uYAme64Q" opacity="1" fill-opacity="0" stroke="#000000" stroke-width="1" stroke-opacity="0"></use></g></g></g><g><g><g><filter id="shadow5591173" x="-86.5" y="-690.92" width="361.93" height="515.21" filterUnits="userSpaceOnUse" primitiveUnits="userSpaceOnUse"><feFlood></feFlood><feComposite in2="SourceAlpha" operator="in"></feComposite><feGaussianBlur stdDeviation="5.39"></feGaussianBlur><feOffset dx="1" dy="5" result="afterOffset"></feOffset><feFlood flood-color="#271fd7" flood-opacity="0.5"></feFlood><feComposite in2="afterOffset" operator="in"></feComposite><feMorphology operator="dilate" radius="7"></feMorphology><feComposite in2="SourceAlpha" operator="out"></feComposite></filter><path d="M199.43 -615.92L199.43 -255.71L-11.5 -255.71L-11.5 -615.92L199.43 -615.92Z" id="bbU3TlA1E" fill="white" fill-opacity="1" filter="url(#shadow5591173)"></path></g><use xlink:href="#aUdhOVVKL" opacity="1" fill="#000000" fill-opacity="1"></use><g><use xlink:href="#aUdhOVVKL" opacity="1" fill-opacity="0" stroke="#000000" stroke-width="1" stroke-opacity="0"></use></g></g><g><g><filter id="shadow13720761" x="-86.5" y="-717.25" width="361.93" height="207.66" filterUnits="userSpaceOnUse" primitiveUnits="userSpaceOnUse"><feFlood></feFlood><feComposite in2="SourceAlpha" operator="in"></feComposite><feGaussianBlur stdDeviation="5.39"></feGaussianBlur><feOffset dx="1" dy="5" result="afterOffset"></feOffset><feFlood flood-color="#271fd7" flood-opacity="0.5"></feFlood><feComposite in2="afterOffset" operator="in"></feComposite><feMorphology operator="dilate" radius="7"></feMorphology><feComposite in2="SourceAlpha" operator="out"></feComposite></filter><path d="M93.96 -589.59C35.76 -589.59 -11.5 -601.39 -11.5 -615.92C-11.5 -630.45 35.76 -642.25 93.96 -642.25C152.17 -642.25 199.43 -630.45 199.43 -615.92C199.43 -601.39 152.17 -589.59 93.96 -589.59Z" id="g1Y9wKgC0i" fill="white" fill-opacity="1" filter="url(#shadow13720761)"></path></g><use xlink:href="#a1CtGVvJlp" opacity="1" fill="#000000" fill-opacity="1"></use><g><use xlink:href="#a1CtGVvJlp" opacity="1" fill-opacity="0" stroke="#b3b3b3" stroke-width="1" stroke-opacity="1"></use></g></g><g><use xlink:href="#a1BhD6Yuyh" opacity="1" fill="#000000" fill-opacity="0"></use><g><use xlink:href="#a1BhD6Yuyh" opacity="1" fill-opacity="0" stroke="#b3b3b3" stroke-width="3.5" stroke-opacity="1"></use></g></g><g><g><filter id="shadow2471185" x="-86.5" y="-357.03" width="361.93" height="214.65" filterUnits="userSpaceOnUse" primitiveUnits="userSpaceOnUse"><feFlood></feFlood><feComposite in2="SourceAlpha" operator="in"></feComposite><feGaussianBlur stdDeviation="5.29"></feGaussianBlur><feOffset dx="1" dy="12" result="afterOffset"></feOffset><feFlood flood-color="#271fd7" flood-opacity="0.5"></feFlood><feComposite in2="afterOffset" operator="in"></feComposite><feMorphology operator="dilate" radius="2"></feMorphology><feComposite in2="SourceAlpha" operator="out"></feComposite></filter><path d="M93.96 -229.38C35.76 -229.38 -11.5 -241.17 -11.5 -255.71C-11.5 -270.23 35.76 -282.03 93.96 -282.03C152.17 -282.03 199.43 -270.23 199.43 -255.71C199.43 -241.17 152.17 -229.38 93.96 -229.38Z" id="i6g2zYzD6g" fill="white" fill-opacity="1" filter="url(#shadow2471185)"></path></g><use xlink:href="#i3UA4jokGg" opacity="1" fill="#000000" fill-opacity="1"></use><g><use xlink:href="#i3UA4jokGg" opacity="1" fill-opacity="0" stroke="#000000" stroke-width="1" stroke-opacity="0"></use></g></g></g><g><g><use xlink:href="#bwhfOupAM" opacity="1" fill="#f22003" fill-opacity="1"></use><g><use xlink:href="#bwhfOupAM" opacity="1" fill-opacity="0" stroke="#000000" stroke-width="1" stroke-opacity="0"></use></g></g><g><use xlink:href="#c15A0gvg3p" opacity="1" fill="#f22003" fill-opacity="1"></use><g><use xlink:href="#c15A0gvg3p" opacity="1" fill-opacity="0" stroke="#b3b3b3" stroke-width="1" stroke-opacity="1"></use></g></g><g><use xlink:href="#c4EGmnOpGq" opacity="1" fill="#f22003" fill-opacity="1"></use><g><use xlink:href="#c4EGmnOpGq" opacity="1" fill-opacity="0" stroke="#000000" stroke-width="3.5" stroke-opacity="1"></use></g></g><g><use xlink:href="#a7fcUsNxER" opacity="1" fill="#f22003" fill-opacity="1"></use><g><use xlink:href="#a7fcUsNxER" opacity="1" fill-opacity="0" stroke="#000000" stroke-width="1" stroke-opacity="0"></use></g></g></g><g><g><g><filter id="shadow6705783" x="1000.03" y="31.21" width="361.93" height="513.64" filterUnits="userSpaceOnUse" primitiveUnits="userSpaceOnUse"><feFlood></feFlood><feComposite in2="SourceAlpha" operator="in"></feComposite><feGaussianBlur stdDeviation="5.39"></feGaussianBlur><feOffset dx="1" dy="5" result="afterOffset"></feOffset><feFlood flood-color="#271fd7" flood-opacity="0.5"></feFlood><feComposite in2="afterOffset" operator="in"></feComposite><feMorphology operator="dilate" radius="7"></feMorphology><feComposite in2="SourceAlpha" operator="out"></feComposite></filter><path d="M1285.97 106.21L1285.97 464.85L1075.03 464.85L1075.03 106.21L1285.97 106.21Z" id="c4g7QpXH2G" fill="white" fill-opacity="1" filter="url(#shadow6705783)"></path></g><use xlink:href="#b1hz4mGP3d" opacity="1" fill="#f22003" fill-opacity="1"></use><g><use xlink:href="#b1hz4mGP3d" opacity="1" fill-opacity="0" stroke="#000000" stroke-width="1" stroke-opacity="0"></use></g></g><g><g><filter id="shadow11909612" x="1004.03" y="8.99" width="353.93" height="195.43" filterUnits="userSpaceOnUse" primitiveUnits="userSpaceOnUse"><feFlood></feFlood><feComposite in2="SourceAlpha" operator="in"></feComposite><feGaussianBlur stdDeviation="5.39"></feGaussianBlur><feOffset dx="1" dy="1" result="afterOffset"></feOffset><feFlood flood-color="#271fd7" flood-opacity="0.5"></feFlood><feComposite in2="afterOffset" operator="in"></feComposite><feMorphology operator="dilate" radius="7"></feMorphology><feComposite in2="SourceAlpha" operator="out"></feComposite></filter><path d="M1180.5 132.42C1122.29 132.42 1075.03 120.67 1075.03 106.21C1075.03 91.74 1122.29 79.99 1180.5 79.99C1238.71 79.99 1285.97 91.74 1285.97 106.21C1285.97 120.67 1238.71 132.42 1180.5 132.42Z" id="bhQvs2Pd0" fill="white" fill-opacity="1" filter="url(#shadow11909612)"></path></g><use xlink:href="#fCW99Mc7" opacity="1" fill="#f22003" fill-opacity="1"></use><g><use xlink:href="#fCW99Mc7" opacity="1" fill-opacity="0" stroke="#000000" stroke-width="1" stroke-opacity="0"></use></g></g><g><use xlink:href="#b2KkRSJqB" opacity="1" fill="#f22003" fill-opacity="1"></use><g><use xlink:href="#b2KkRSJqB" opacity="1" fill-opacity="0" stroke="#000000" stroke-width="3.5" stroke-opacity="1"></use></g></g><g><g><filter id="shadow12001237" x="1000.03" y="363.64" width="360.93" height="214.42" filterUnits="userSpaceOnUse" primitiveUnits="userSpaceOnUse"><feFlood></feFlood><feComposite in2="SourceAlpha" operator="in"></feComposite><feGaussianBlur stdDeviation="5.29"></feGaussianBlur><feOffset dx="0" dy="12" result="afterOffset"></feOffset><feFlood flood-color="#271fd7" flood-opacity="0.5"></feFlood><feComposite in2="afterOffset" operator="in"></feComposite><feMorphology operator="dilate" radius="2"></feMorphology><feComposite in2="SourceAlpha" operator="out"></feComposite></filter><path d="M1180.5 491.06C1122.29 491.06 1075.03 479.32 1075.03 464.85C1075.03 450.39 1122.29 438.64 1180.5 438.64C1238.71 438.64 1285.97 450.39 1285.97 464.85C1285.97 479.32 1238.71 491.06 1180.5 491.06Z" id="b286wgBYAd" fill="white" fill-opacity="1" filter="url(#shadow12001237)"></path></g><use xlink:href="#b1KSe3Veft" opacity="1" fill="#f22003" fill-opacity="1"></use><g><use xlink:href="#b1KSe3Veft" opacity="1" fill-opacity="0" stroke="#000000" stroke-width="1" stroke-opacity="0"></use></g></g></g><g><g><g><filter id="shadow11792538" x="-351.79" y="-54.85" width="361.93" height="513.64" filterUnits="userSpaceOnUse" primitiveUnits="userSpaceOnUse"><feFlood></feFlood><feComposite in2="SourceAlpha" operator="in"></feComposite><feGaussianBlur stdDeviation="5.39"></feGaussianBlur><feOffset dx="1" dy="5" result="afterOffset"></feOffset><feFlood flood-color="#271fd7" flood-opacity="0.5"></feFlood><feComposite in2="afterOffset" operator="in"></feComposite><feMorphology operator="dilate" radius="7"></feMorphology><feComposite in2="SourceAlpha" operator="out"></feComposite></filter><path d="M-65.86 20.15L-65.86 378.79L-276.79 378.79L-276.79 20.15L-65.86 20.15Z" id="e1fqNsnOvY" fill="white" fill-opacity="1" filter="url(#shadow11792538)"></path></g><use xlink:href="#c1vG1eBFfK" opacity="1" fill="#ff7100" fill-opacity="1"></use><g><use xlink:href="#c1vG1eBFfK" opacity="1" fill-opacity="0" stroke="#000000" stroke-width="1" stroke-opacity="0"></use></g></g><g><g><filter id="shadow1515345" x="-347.79" y="-77.07" width="353.93" height="195.43" filterUnits="userSpaceOnUse" primitiveUnits="userSpaceOnUse"><feFlood></feFlood><feComposite in2="SourceAlpha" operator="in"></feComposite><feGaussianBlur stdDeviation="5.39"></feGaussianBlur><feOffset dx="1" dy="1" result="afterOffset"></feOffset><feFlood flood-color="#271fd7" flood-opacity="0.5"></feFlood><feComposite in2="afterOffset" operator="in"></feComposite><feMorphology operator="dilate" radius="7"></feMorphology><feComposite in2="SourceAlpha" operator="out"></feComposite></filter><path d="M-171.33 46.36C-229.54 46.36 -276.79 34.61 -276.79 20.15C-276.79 5.68 -229.54 -6.07 -171.33 -6.07C-113.12 -6.07 -65.86 5.68 -65.86 20.15C-65.86 34.61 -113.12 46.36 -171.33 46.36Z" id="b8fB9ajqmV" fill="white" fill-opacity="1" filter="url(#shadow1515345)"></path></g><use xlink:href="#aHs90rDWc" opacity="1" fill="#ff7100" fill-opacity="1"></use><g><use xlink:href="#aHs90rDWc" opacity="1" fill-opacity="0" stroke="#000000" stroke-width="1" stroke-opacity="0"></use></g></g><g><use xlink:href="#asm1nMp52" opacity="1" fill="#ff7100" fill-opacity="1"></use><g><use xlink:href="#asm1nMp52" opacity="1" fill-opacity="0" stroke="#000000" stroke-width="3.5" stroke-opacity="1"></use></g></g><g><g><filter id="shadow12883095" x="-351.79" y="277.58" width="360.93" height="214.42" filterUnits="userSpaceOnUse" primitiveUnits="userSpaceOnUse"><feFlood></feFlood><feComposite in2="SourceAlpha" operator="in"></feComposite><feGaussianBlur stdDeviation="5.29"></feGaussianBlur><feOffset dx="0" dy="12" result="afterOffset"></feOffset><feFlood flood-color="#271fd7" flood-opacity="0.5"></feFlood><feComposite in2="afterOffset" operator="in"></feComposite><feMorphology operator="dilate" radius="2"></feMorphology><feComposite in2="SourceAlpha" operator="out"></feComposite></filter><path d="M-171.33 405C-229.54 405 -276.79 393.26 -276.79 378.79C-276.79 364.33 -229.54 352.58 -171.33 352.58C-113.12 352.58 -65.86 364.33 -65.86 378.79C-65.86 393.26 -113.12 405 -171.33 405Z" id="acVmFsKzn" fill="white" fill-opacity="1" filter="url(#shadow12883095)"></path></g><use xlink:href="#azq9Pp0bZ" opacity="1" fill="#ff7100" fill-opacity="1"></use><g><use xlink:href="#azq9Pp0bZ" opacity="1" fill-opacity="0" stroke="#000000" stroke-width="1" stroke-opacity="0"></use></g></g></g><g><g><use xlink:href="#c20ObD8v64" opacity="1" fill="#ff7100" fill-opacity="1"></use><g><use xlink:href="#c20ObD8v64" opacity="1" fill-opacity="0" stroke="#000000" stroke-width="1" stroke-opacity="0"></use></g></g><g><use xlink:href="#ag41roYiE" opacity="1" fill="#ff7100" fill-opacity="1"></use><g><use xlink:href="#ag41roYiE" opacity="1" fill-opacity="0" stroke="#b3b3b3" stroke-width="1" stroke-opacity="1"></use></g></g><g><use xlink:href="#a4C03YOm6z" opacity="1" fill="#ff7100" fill-opacity="1"></use><g><use xlink:href="#a4C03YOm6z" opacity="1" fill-opacity="0" stroke="#000000" stroke-width="3.5" stroke-opacity="1"></use></g></g><g><use xlink:href="#a1s3uv8wTN" opacity="1" fill="#ff7100" fill-opacity="1"></use><g><use xlink:href="#a1s3uv8wTN" opacity="1" fill-opacity="0" stroke="#000000" stroke-width="1" stroke-opacity="0"></use></g></g></g></g></g></svg>